<?xml version="1.0" encoding="UTF-8" standalone="no"?>
<!-- Created with Inkscape (http://www.inkscape.org/) -->

<svg
   xmlns:dc="http://purl.org/dc/elements/1.1/"
   xmlns:cc="http://creativecommons.org/ns#"
   xmlns:rdf="http://www.w3.org/1999/02/22-rdf-syntax-ns#"
   xmlns:svg="http://www.w3.org/2000/svg"
   xmlns="http://www.w3.org/2000/svg"
   xmlns:sodipodi="http://sodipodi.sourceforge.net/DTD/sodipodi-0.dtd"
   xmlns:inkscape="http://www.inkscape.org/namespaces/inkscape"
   width="529.16669mm"
   height="87.928123mm"
   viewBox="0 0 529.16669 87.928112"
   version="1.1"
   id="svg8"
   inkscape:version="0.92.0 r15299"
   sodipodi:docname="daq.svg">
  <defs
     id="defs2" />
  <sodipodi:namedview
     id="base"
     pagecolor="#ffffff"
     bordercolor="#666666"
     borderopacity="1.0"
     inkscape:pageopacity="0.0"
     inkscape:pageshadow="2"
     inkscape:zoom="0.35"
     inkscape:cx="682.17899"
     inkscape:cy="-22.790774"
     inkscape:document-units="mm"
     inkscape:current-layer="layer1"
     showgrid="false"
     fit-margin-top="0"
     fit-margin-left="0"
     fit-margin-right="0"
     fit-margin-bottom="0"
     inkscape:window-width="1600"
     inkscape:window-height="837"
     inkscape:window-x="-8"
     inkscape:window-y="-8"
     inkscape:window-maximized="1" />
  <metadata
     id="metadata5">
    <rdf:RDF>
      <cc:Work
         rdf:about="">
        <dc:format>image/svg+xml</dc:format>
        <dc:type
           rdf:resource="http://purl.org/dc/dcmitype/StillImage" />
        <dc:title></dc:title>
      </cc:Work>
    </rdf:RDF>
  </metadata>
  <g
     inkscape:label="レイヤー 1"
     inkscape:groupmode="layer"
     id="layer1"
     transform="translate(4028.252,8.3642214)">
    <g
       id="g562">
      <g
         transform="translate(-2167.8846,-585.70681)"
         id="g639">
        <g
           id="g1034"
           transform="translate(-869.34521,-221.49402)">
          <path
             id="rect446-3-1"
             d="m -797.84113,815.22886 v 9.35498 h 41.91579 v 5.21157 h -9.83971 a 3.7417735,3.7417735 0 0 1 -3.73621,3.57394 3.7417735,3.7417735 0 0 1 -3.73362,-3.57394 h -25.6067 a 3.7417735,3.7417735 0 0 1 -3.73621,3.57394 3.7417735,3.7417735 0 0 1 -3.73311,-3.57394 h -6.09626 v -6.84609 l 4.45709,-7.72046 z m -1.56683,1.5875 h -7.48378 l -3.92844,6.80475 v 0.91571 h 4.71806 l 1.11569,-1.9327 h 5.57847 z m 29.9067,11.01483 a 1.7960513,1.7960513 0 0 0 -1.79575,1.79627 1.7960513,1.7960513 0 0 0 1.79575,1.79628 1.7960513,1.7960513 0 0 0 1.79628,-1.79628 1.7960513,1.7960513 0 0 0 -1.79628,-1.79627 z m -33.07653,0 a 1.7960512,1.7960512 0 0 0 -1.79576,1.79627 1.7960512,1.7960512 0 0 0 1.79576,1.79628 1.7960512,1.7960512 0 0 0 1.79627,-1.79628 1.7960512,1.7960512 0 0 0 -1.79627,-1.79627 z"
             style="opacity:1;fill:#000000;fill-opacity:1;stroke:none;stroke-width:2;stroke-linecap:butt;stroke-linejoin:miter;stroke-miterlimit:4;stroke-dasharray:none;stroke-dashoffset:0;stroke-opacity:1;paint-order:fill markers stroke"
             inkscape:connector-curvature="0" />
          <path
             inkscape:connector-curvature="0"
             id="rect446-3-1-4"
             d="m -927.862,808.14763 v 16.43622 2.5668 2.6448 h 9.83971 a 3.7417734,3.7417734 0 0 0 3.73621,3.5739 3.7417734,3.7417734 0 0 0 3.73362,-3.5739 h 25.60671 a 3.7417734,3.7417734 0 0 0 3.7362,3.5739 3.7417734,3.7417734 0 0 0 3.7331,-3.5739 h 6.09627 v -6.8461 l -4.45709,-7.7205 h -10.10894 v 9.355 h -0.53175 v -16.43622 z m 43.48262,8.66872 h 7.48378 l 3.92844,6.8048 v 0.9157 h -4.71806 l -1.11569,-1.9327 h -5.57847 z m -29.9067,11.0148 a 1.7960513,1.7960513 0 0 1 1.79575,1.7963 1.7960513,1.7960513 0 0 1 -1.79575,1.7963 1.7960513,1.7960513 0 0 1 -1.79628,-1.7963 1.7960513,1.7960513 0 0 1 1.79628,-1.7963 z m 33.07653,0 a 1.7960512,1.7960512 0 0 1 1.79576,1.7963 1.7960512,1.7960512 0 0 1 -1.79576,1.7963 1.7960512,1.7960512 0 0 1 -1.79627,-1.7963 1.7960512,1.7960512 0 0 1 1.79627,-1.7963 z"
             style="opacity:1;fill:#000000;fill-opacity:1;stroke:none;stroke-width:2;stroke-linecap:butt;stroke-linejoin:miter;stroke-miterlimit:4;stroke-dasharray:none;stroke-dashoffset:0;stroke-opacity:1;paint-order:fill markers stroke" />
        </g>
        <g
           id="g374"
           transform="translate(4.68442,-1.1415405e-5)">
          <rect
             y="585.69275"
             x="-1850.8381"
             height="24.682592"
             width="33.910126"
             id="rect5378"
             style="fill:none;stroke:#ff0000;stroke-width:3;stroke-linejoin:miter;stroke-miterlimit:4;stroke-dasharray:none;stroke-opacity:1;paint-order:normal" />
          <path
             inkscape:connector-curvature="0"
             d="m -1849.5289,583.91591 -11.3853,-6.57331 -3.2866,5.69266 11.3853,6.5733 z m 2.4606,1.42855 -3.7698,0.34829 -1.0933,1.89357 1.5833,3.43886 z m -6.5982,3.14696 2e-4,2.59124 -0.696,-1.6e-4 2e-4,-2.59095 z m -9.1412,-5.27767 0.3477,0.60243 -2.2442,1.29545 -0.3476,-0.60237 z"
             style="fill:#000000;stroke:none;stroke-width:2.99999976;stroke-miterlimit:4;stroke-dasharray:none;stroke-opacity:1;paint-order:normal"
             id="rect5452" />
        </g>
      </g>
      <g
         id="g529">
        <path
           style="fill:#000000;fill-opacity:1;stroke:none;stroke-width:5;stroke-linecap:butt;stroke-linejoin:miter;stroke-miterlimit:4;stroke-dasharray:none;stroke-dashoffset:0;stroke-opacity:1;paint-order:normal"
           d="m -4028.252,26.16852 v 9.62163 h 30.7873 v 0.61082 h -1.9245 v 26.86502 h 9.6217 V 36.40097 h -1.9244 v -1.03095 a 62.538109,6.278324 0 0 1 54.8411,-3.28403 62.538109,6.278324 0 0 1 54.841,3.2892 v 1.02578 h -1.9244 v 26.86502 h 9.6217 V 36.40097 h -1.9245 v -1.03095 a 62.538109,6.278324 0 0 1 54.8406,-3.28403 62.538109,6.278324 0 0 1 54.8411,3.2892 v 1.02578 h -1.9239 v 26.86502 h 9.6211 V 36.40097 h -1.9239 v -1.03095 a 62.538109,6.278324 0 0 1 54.8406,-3.28403 62.538109,6.278324 0 0 1 54.8411,3.2892 v 1.02578 h -1.924 v 26.86502 h 9.6212 V 36.40097 h -1.924 v -1.03095 a 62.538109,6.278324 0 0 1 54.8406,-3.28403 62.538109,6.278324 0 0 1 54.8411,3.2892 v 1.02578 h -1.9244 v 26.86502 h 9.6216 V 36.40097 h -1.9239 v -0.61082 h 30.7868 v -9.62163 z"
           id="rect5565-94"
           inkscape:connector-curvature="0" />
        <g
           id="g504"
           transform="translate(-1.00001)">
          <g
             id="g481">
            <circle
               style="fill:#ffff00;fill-opacity:1;stroke:none;stroke-width:5;stroke-linecap:butt;stroke-linejoin:miter;stroke-miterlimit:4;stroke-dasharray:none;stroke-dashoffset:0;stroke-opacity:1;paint-order:normal"
               id="path5632-4"
               cx="-3977.1042"
               cy="31.508467"
               r="4.1577382" />
            <g
               id="g465">
              <g
                 id="g451">
                <path
                   style="opacity:1;fill:#000000;fill-opacity:1;stroke:none;stroke-width:0.19999999;stroke-linecap:butt;stroke-linejoin:round;stroke-miterlimit:4;stroke-dasharray:none;stroke-dashoffset:0;stroke-opacity:1;paint-order:fill markers stroke"
                   d="M -3946.3759,34.35099 V 53.401 h 19.05 V 34.35099 Z m 9.0322,1.36425 v 7.32069 a 0.97517856,0.97517856 0 0 0 -0.4825,0.84007 0.97517856,0.97517856 0 0 0 0.9753,0.97523 0.97517856,0.97517856 0 0 0 0.7553,-0.35967 h 5.4368 V 43.26 h -5.4368 a 0.97517856,0.97517856 0 0 0 -0.2625,-0.22447 v -7.31325 a 8.178448,8.178448 0 0 1 7.6857,8.15372 8.178448,8.178448 0 0 1 -8.1785,8.1785 8.178448,8.178448 0 0 1 -8.1785,-8.1785 8.178448,8.178448 0 0 1 7.6857,-8.16076 z"
                   id="rect2529-2-58"
                   inkscape:connector-curvature="0" />
                <circle
                   style="fill:#ff0000;fill-opacity:1;stroke:none;stroke-width:5;stroke-linecap:butt;stroke-linejoin:miter;stroke-miterlimit:4;stroke-dasharray:none;stroke-dashoffset:0;stroke-opacity:1;paint-order:normal"
                   id="path5632-4-3-5-8"
                   cx="-3936.8508"
                   cy="31.508471"
                   r="4.1577382" />
              </g>
              <g
                 id="g447">
                <path
                   style="opacity:1;fill:#000000;fill-opacity:1;stroke:none;stroke-width:0.19999999;stroke-linecap:butt;stroke-linejoin:round;stroke-miterlimit:4;stroke-dasharray:none;stroke-dashoffset:0;stroke-opacity:1;paint-order:fill markers stroke"
                   d="M -3830.921,34.35099 V 53.401 h 19.05 V 34.35099 Z m 9.0322,1.36425 v 7.32069 a 0.97517856,0.97517856 0 0 0 -0.4825,0.84007 0.97517856,0.97517856 0 0 0 0.9753,0.97523 0.97517856,0.97517856 0 0 0 0.7553,-0.35967 h 5.4368 V 43.26 h -5.4368 a 0.97517856,0.97517856 0 0 0 -0.2625,-0.22447 v -7.31325 a 8.178448,8.178448 0 0 1 7.6857,8.15372 8.178448,8.178448 0 0 1 -8.1785,8.1785 8.178448,8.178448 0 0 1 -8.1785,-8.1785 8.178448,8.178448 0 0 1 7.6857,-8.16076 z"
                   id="rect2529-2-5-8"
                   inkscape:connector-curvature="0" />
                <circle
                   style="fill:#ff0000;fill-opacity:1;stroke:none;stroke-width:5;stroke-linecap:butt;stroke-linejoin:miter;stroke-miterlimit:4;stroke-dasharray:none;stroke-dashoffset:0;stroke-opacity:1;paint-order:normal"
                   id="path5632-4-3-5-4-9"
                   cx="-3821.396"
                   cy="31.508471"
                   r="4.1577382" />
              </g>
              <g
                 id="g443">
                <path
                   style="opacity:1;fill:#000000;fill-opacity:1;stroke:none;stroke-width:0.19999999;stroke-linecap:butt;stroke-linejoin:round;stroke-miterlimit:4;stroke-dasharray:none;stroke-dashoffset:0;stroke-opacity:1;paint-order:fill markers stroke"
                   d="M -3715.4662,34.35099 V 53.401 h 19.05 V 34.35099 Z m 9.0322,1.36425 v 7.32069 a 0.97517856,0.97517856 0 0 0 -0.4825,0.84007 0.97517856,0.97517856 0 0 0 0.9753,0.97523 0.97517856,0.97517856 0 0 0 0.7553,-0.35967 h 5.4368 V 43.26 h -5.4368 a 0.97517856,0.97517856 0 0 0 -0.2625,-0.22447 v -7.31325 a 8.178448,8.178448 0 0 1 7.6857,8.15372 8.178448,8.178448 0 0 1 -8.1785,8.1785 8.178448,8.178448 0 0 1 -8.1785,-8.1785 8.178448,8.178448 0 0 1 7.6857,-8.16076 z"
                   id="rect2529-2-8-2"
                   inkscape:connector-curvature="0" />
                <circle
                   style="fill:#ff0000;fill-opacity:1;stroke:none;stroke-width:5;stroke-linecap:butt;stroke-linejoin:miter;stroke-miterlimit:4;stroke-dasharray:none;stroke-dashoffset:0;stroke-opacity:1;paint-order:normal"
                   id="path5632-4-3-5-6-2"
                   cx="-3705.9412"
                   cy="31.508471"
                   r="4.1577382" />
              </g>
              <g
                 id="g439">
                <path
                   style="opacity:1;fill:#000000;fill-opacity:1;stroke:none;stroke-width:0.19999999;stroke-linecap:butt;stroke-linejoin:round;stroke-miterlimit:4;stroke-dasharray:none;stroke-dashoffset:0;stroke-opacity:1;paint-order:fill markers stroke"
                   d="M -3600.0114,34.35099 V 53.401 h 19.05 V 34.35099 Z m 9.0322,1.36425 v 7.32069 a 0.97517856,0.97517856 0 0 0 -0.4825,0.84007 0.97517856,0.97517856 0 0 0 0.9753,0.97523 0.97517856,0.97517856 0 0 0 0.7553,-0.35967 h 5.4368 V 43.26 h -5.4368 a 0.97517856,0.97517856 0 0 0 -0.2625,-0.22447 v -7.31325 a 8.178448,8.178448 0 0 1 7.6857,8.15372 8.178448,8.178448 0 0 1 -8.1785,8.1785 8.178448,8.178448 0 0 1 -8.1785,-8.1785 8.178448,8.178448 0 0 1 7.6857,-8.16076 z"
                   id="rect2529-2-83-1"
                   inkscape:connector-curvature="0" />
                <circle
                   style="fill:#ff0000;fill-opacity:1;stroke:none;stroke-width:5;stroke-linecap:butt;stroke-linejoin:miter;stroke-miterlimit:4;stroke-dasharray:none;stroke-dashoffset:0;stroke-opacity:1;paint-order:normal"
                   id="path5632-4-3-5-5-7"
                   cx="-3590.4863"
                   cy="31.508471"
                   r="4.1577382" />
              </g>
            </g>
          </g>
          <g
             transform="translate(0,-12.51083)"
             id="g435">
            <g
               id="g5049"
               transform="translate(-542.41469,-494.24288)">
              <path
                 sodipodi:nodetypes="ccc"
                 inkscape:connector-curvature="0"
                 id="path2984-15"
                 d="m -3394.4362,560.15471 v 11.2254 h -90.4011"
                 style="fill:none;stroke:#000000;stroke-width:2;stroke-linecap:butt;stroke-linejoin:miter;stroke-miterlimit:4;stroke-dasharray:none;stroke-opacity:1" />
              <path
                 sodipodi:nodetypes="ccc"
                 inkscape:connector-curvature="0"
                 id="path2984-3-0"
                 d="m -3278.9814,560.15471 v 15.8712 h -205.8559"
                 style="fill:none;stroke:#000000;stroke-width:2;stroke-linecap:butt;stroke-linejoin:miter;stroke-miterlimit:4;stroke-dasharray:none;stroke-opacity:1" />
              <path
                 sodipodi:nodetypes="ccc"
                 inkscape:connector-curvature="0"
                 id="path2984-8-6"
                 d="m -3163.5264,560.15471 v 20.5171 h -321.3109"
                 style="fill:none;stroke:#000000;stroke-width:2;stroke-linecap:butt;stroke-linejoin:miter;stroke-miterlimit:4;stroke-dasharray:none;stroke-opacity:1" />
              <path
                 sodipodi:nodetypes="ccc"
                 inkscape:connector-curvature="0"
                 id="path2984-1-3"
                 d="m -3048.0717,560.15471 v 25.1629 h -436.7656"
                 style="fill:none;stroke:#000000;stroke-width:2;stroke-linecap:butt;stroke-linejoin:miter;stroke-miterlimit:4;stroke-dasharray:none;stroke-opacity:1" />
            </g>
          </g>
        </g>
      </g>
    </g>
  </g>
</svg>
