<?xml version="1.0" encoding="utf-8" standalone="no"?>
<!DOCTYPE svg PUBLIC "-//W3C//DTD SVG 1.1//EN"
  "http://www.w3.org/Graphics/SVG/1.1/DTD/svg11.dtd">
<!-- Created with matplotlib (http://matplotlib.org/) -->
<svg height="216pt" version="1.1" viewBox="0 0 720 216" width="720pt" xmlns="http://www.w3.org/2000/svg" xmlns:xlink="http://www.w3.org/1999/xlink">
 <defs>
  <style type="text/css">
*{stroke-linecap:butt;stroke-linejoin:round;}
  </style>
 </defs>
 <g id="figure_1">
  <g id="patch_1">
   <path d="M 0 216 
L 720 216 
L 720 0 
L 0 0 
z
" style="fill:#ffffff;"/>
  </g>
  <g id="axes_1">
   <g id="patch_2">
    <path d="M 56 174.04 
L 703.17 174.04 
L 703.17 26.88 
L 56 26.88 
z
" style="fill:#ffffff;"/>
   </g>
   <g id="matplotlib.axis_1">
    <g id="xtick_1">
     <g id="line2d_1">
      <path clip-path="url(#p75b86648b1)" d="M 56 174.04 
L 56 26.88 
" style="fill:none;stroke:#b0b0b0;stroke-dasharray:0.8,1.32;stroke-dashoffset:0;stroke-width:0.8;"/>
     </g>
     <g id="line2d_2">
      <defs>
       <path d="M 0 0 
L 0 3.5 
" id="m47c04ea1a9" style="stroke:#000000;stroke-width:0.8;"/>
      </defs>
      <g>
       <use style="stroke:#000000;stroke-width:0.8;" x="56" xlink:href="#m47c04ea1a9" y="174.04"/>
      </g>
     </g>
     <g id="text_1">
      <!-- 0 -->
      <defs>
       <path d="M 23.578125 36.625 
Q 23.578125 39.3125 25.453125 41.265625 
Q 27.34375 43.21875 29.984375 43.21875 
Q 32.71875 43.21875 34.671875 41.265625 
Q 36.625 39.3125 36.625 36.625 
Q 36.625 33.890625 34.6875 31.984375 
Q 32.765625 30.078125 29.984375 30.078125 
Q 27.25 30.078125 25.40625 31.9375 
Q 23.578125 33.796875 23.578125 36.625 
z
M 30.078125 66.40625 
Q 23.1875 66.40625 19.796875 58.984375 
Q 16.40625 51.5625 16.40625 36.375 
Q 16.40625 21.234375 19.796875 13.8125 
Q 23.1875 6.390625 30.078125 6.390625 
Q 37.015625 6.390625 40.40625 13.8125 
Q 43.796875 21.234375 43.796875 36.375 
Q 43.796875 51.5625 40.40625 58.984375 
Q 37.015625 66.40625 30.078125 66.40625 
z
M 30.078125 74.21875 
Q 41.75 74.21875 47.734375 64.640625 
Q 53.71875 55.078125 53.71875 36.375 
Q 53.71875 17.71875 47.734375 8.140625 
Q 41.75 -1.421875 30.078125 -1.421875 
Q 18.40625 -1.421875 12.453125 8.140625 
Q 6.5 17.71875 6.5 36.375 
Q 6.5 55.078125 12.453125 64.640625 
Q 18.40625 74.21875 30.078125 74.21875 
z
" id="DejaVuSansMono-30"/>
      </defs>
      <g transform="translate(52.989844 188.691563)scale(0.1 -0.1)">
       <use xlink:href="#DejaVuSansMono-30"/>
      </g>
     </g>
    </g>
    <g id="xtick_2">
     <g id="line2d_3">
      <path clip-path="url(#p75b86648b1)" d="M 163.861667 174.04 
L 163.861667 26.88 
" style="fill:none;stroke:#b0b0b0;stroke-dasharray:0.8,1.32;stroke-dashoffset:0;stroke-width:0.8;"/>
     </g>
     <g id="line2d_4">
      <g>
       <use style="stroke:#000000;stroke-width:0.8;" x="163.861667" xlink:href="#m47c04ea1a9" y="174.04"/>
      </g>
     </g>
     <g id="text_2">
      <!-- 2 -->
      <defs>
       <path d="M 18.21875 8.296875 
L 51.703125 8.296875 
L 51.703125 0 
L 7.421875 0 
L 7.421875 8.296875 
Q 16.546875 17.921875 23.375 25.296875 
Q 30.21875 32.671875 32.8125 35.6875 
Q 37.703125 41.65625 39.40625 45.34375 
Q 41.109375 49.03125 41.109375 52.875 
Q 41.109375 58.984375 37.515625 62.453125 
Q 33.9375 65.921875 27.6875 65.921875 
Q 23.25 65.921875 18.359375 64.3125 
Q 13.484375 62.703125 8.015625 59.421875 
L 8.015625 69.390625 
Q 13.03125 71.78125 17.890625 73 
Q 22.75 74.21875 27.484375 74.21875 
Q 38.1875 74.21875 44.703125 68.53125 
Q 51.21875 62.84375 51.21875 53.609375 
Q 51.21875 48.921875 49.046875 44.234375 
Q 46.875 39.546875 42 33.890625 
Q 39.265625 30.71875 34.0625 25.09375 
Q 28.859375 19.484375 18.21875 8.296875 
z
" id="DejaVuSansMono-32"/>
      </defs>
      <g transform="translate(160.85151 188.691563)scale(0.1 -0.1)">
       <use xlink:href="#DejaVuSansMono-32"/>
      </g>
     </g>
    </g>
    <g id="xtick_3">
     <g id="line2d_5">
      <path clip-path="url(#p75b86648b1)" d="M 271.723333 174.04 
L 271.723333 26.88 
" style="fill:none;stroke:#b0b0b0;stroke-dasharray:0.8,1.32;stroke-dashoffset:0;stroke-width:0.8;"/>
     </g>
     <g id="line2d_6">
      <g>
       <use style="stroke:#000000;stroke-width:0.8;" x="271.723333" xlink:href="#m47c04ea1a9" y="174.04"/>
      </g>
     </g>
     <g id="text_3">
      <!-- 4 -->
      <defs>
       <path d="M 35.890625 63.921875 
L 12.890625 25.390625 
L 35.890625 25.390625 
z
M 34.28125 72.90625 
L 45.703125 72.90625 
L 45.703125 25.390625 
L 55.421875 25.390625 
L 55.421875 17.390625 
L 45.703125 17.390625 
L 45.703125 0 
L 35.890625 0 
L 35.890625 17.390625 
L 4.984375 17.390625 
L 4.984375 26.703125 
z
" id="DejaVuSansMono-34"/>
      </defs>
      <g transform="translate(268.713177 188.691563)scale(0.1 -0.1)">
       <use xlink:href="#DejaVuSansMono-34"/>
      </g>
     </g>
    </g>
    <g id="xtick_4">
     <g id="line2d_7">
      <path clip-path="url(#p75b86648b1)" d="M 379.585 174.04 
L 379.585 26.88 
" style="fill:none;stroke:#b0b0b0;stroke-dasharray:0.8,1.32;stroke-dashoffset:0;stroke-width:0.8;"/>
     </g>
     <g id="line2d_8">
      <g>
       <use style="stroke:#000000;stroke-width:0.8;" x="379.585" xlink:href="#m47c04ea1a9" y="174.04"/>
      </g>
     </g>
     <g id="text_4">
      <!-- 6 -->
      <defs>
       <path d="M 48.390625 71.296875 
L 48.390625 62.203125 
Q 45.3125 64.015625 41.84375 64.96875 
Q 38.375 65.921875 34.625 65.921875 
Q 25.25 65.921875 20.40625 58.859375 
Q 15.578125 51.8125 15.578125 38.09375 
Q 17.921875 42.96875 22.0625 45.578125 
Q 26.21875 48.1875 31.59375 48.1875 
Q 42.140625 48.1875 47.921875 41.71875 
Q 53.71875 35.25 53.71875 23.390625 
Q 53.71875 11.578125 47.75 5.078125 
Q 41.796875 -1.421875 31 -1.421875 
Q 18.3125 -1.421875 12.40625 7.6875 
Q 6.5 16.796875 6.5 36.375 
Q 6.5 54.828125 13.59375 64.515625 
Q 20.703125 74.21875 34.1875 74.21875 
Q 37.796875 74.21875 41.40625 73.453125 
Q 45.015625 72.703125 48.390625 71.296875 
z
M 30.8125 40.484375 
Q 24.515625 40.484375 20.890625 35.9375 
Q 17.28125 31.390625 17.28125 23.390625 
Q 17.28125 15.375 20.890625 10.828125 
Q 24.515625 6.296875 30.8125 6.296875 
Q 37.359375 6.296875 40.671875 10.609375 
Q 44 14.9375 44 23.390625 
Q 44 31.890625 40.671875 36.1875 
Q 37.359375 40.484375 30.8125 40.484375 
z
" id="DejaVuSansMono-36"/>
      </defs>
      <g transform="translate(376.574844 188.691563)scale(0.1 -0.1)">
       <use xlink:href="#DejaVuSansMono-36"/>
      </g>
     </g>
    </g>
    <g id="xtick_5">
     <g id="line2d_9">
      <path clip-path="url(#p75b86648b1)" d="M 487.446667 174.04 
L 487.446667 26.88 
" style="fill:none;stroke:#b0b0b0;stroke-dasharray:0.8,1.32;stroke-dashoffset:0;stroke-width:0.8;"/>
     </g>
     <g id="line2d_10">
      <g>
       <use style="stroke:#000000;stroke-width:0.8;" x="487.446667" xlink:href="#m47c04ea1a9" y="174.04"/>
      </g>
     </g>
     <g id="text_5">
      <!-- 8 -->
      <defs>
       <path d="M 30.078125 34.625 
Q 23.484375 34.625 19.890625 30.9375 
Q 16.3125 27.25 16.3125 20.515625 
Q 16.3125 13.765625 19.9375 10.03125 
Q 23.578125 6.296875 30.078125 6.296875 
Q 36.71875 6.296875 40.296875 9.984375 
Q 43.890625 13.671875 43.890625 20.515625 
Q 43.890625 27.203125 40.25 30.90625 
Q 36.625 34.625 30.078125 34.625 
z
M 21.484375 38.71875 
Q 15.1875 40.328125 11.640625 44.71875 
Q 8.109375 49.125 8.109375 55.328125 
Q 8.109375 64.015625 14.015625 69.109375 
Q 19.921875 74.21875 30.078125 74.21875 
Q 40.28125 74.21875 46.1875 69.109375 
Q 52.09375 64.015625 52.09375 55.328125 
Q 52.09375 49.125 48.546875 44.71875 
Q 45.015625 40.328125 38.71875 38.71875 
Q 46.046875 37.109375 49.921875 32.21875 
Q 53.8125 27.34375 53.8125 19.578125 
Q 53.8125 9.71875 47.515625 4.140625 
Q 41.21875 -1.421875 30.078125 -1.421875 
Q 18.953125 -1.421875 12.671875 4.125 
Q 6.390625 9.671875 6.390625 19.484375 
Q 6.390625 27.296875 10.265625 32.203125 
Q 14.15625 37.109375 21.484375 38.71875 
z
M 17.921875 54.390625 
Q 17.921875 48.53125 21.046875 45.453125 
Q 24.171875 42.390625 30.078125 42.390625 
Q 36.03125 42.390625 39.15625 45.453125 
Q 42.28125 48.53125 42.28125 54.390625 
Q 42.28125 60.359375 39.171875 63.484375 
Q 36.078125 66.609375 30.078125 66.609375 
Q 24.171875 66.609375 21.046875 63.453125 
Q 17.921875 60.296875 17.921875 54.390625 
z
" id="DejaVuSansMono-38"/>
      </defs>
      <g transform="translate(484.43651 188.691563)scale(0.1 -0.1)">
       <use xlink:href="#DejaVuSansMono-38"/>
      </g>
     </g>
    </g>
    <g id="xtick_6">
     <g id="line2d_11">
      <path clip-path="url(#p75b86648b1)" d="M 595.308333 174.04 
L 595.308333 26.88 
" style="fill:none;stroke:#b0b0b0;stroke-dasharray:0.8,1.32;stroke-dashoffset:0;stroke-width:0.8;"/>
     </g>
     <g id="line2d_12">
      <g>
       <use style="stroke:#000000;stroke-width:0.8;" x="595.308333" xlink:href="#m47c04ea1a9" y="174.04"/>
      </g>
     </g>
     <g id="text_6">
      <!-- 10 -->
      <defs>
       <path d="M 13.1875 8.296875 
L 28.515625 8.296875 
L 28.515625 64.015625 
L 12.015625 60.296875 
L 12.015625 69.28125 
L 28.421875 72.90625 
L 38.28125 72.90625 
L 38.28125 8.296875 
L 53.421875 8.296875 
L 53.421875 0 
L 13.1875 0 
z
" id="DejaVuSansMono-31"/>
      </defs>
      <g transform="translate(589.288021 188.691563)scale(0.1 -0.1)">
       <use xlink:href="#DejaVuSansMono-31"/>
       <use x="60.205078" xlink:href="#DejaVuSansMono-30"/>
      </g>
     </g>
    </g>
    <g id="xtick_7">
     <g id="line2d_13">
      <path clip-path="url(#p75b86648b1)" d="M 703.17 174.04 
L 703.17 26.88 
" style="fill:none;stroke:#b0b0b0;stroke-dasharray:0.8,1.32;stroke-dashoffset:0;stroke-width:0.8;"/>
     </g>
     <g id="line2d_14">
      <g>
       <use style="stroke:#000000;stroke-width:0.8;" x="703.17" xlink:href="#m47c04ea1a9" y="174.04"/>
      </g>
     </g>
     <g id="text_7">
      <!-- 12 -->
      <g transform="translate(697.149687 188.691563)scale(0.1 -0.1)">
       <use xlink:href="#DejaVuSansMono-31"/>
       <use x="60.205078" xlink:href="#DejaVuSansMono-32"/>
      </g>
     </g>
    </g>
    <g id="text_8">
     <!-- time [s] -->
     <defs>
      <path d="M 29.984375 70.21875 
L 29.984375 54.6875 
L 50.390625 54.6875 
L 50.390625 47.703125 
L 29.984375 47.703125 
L 29.984375 18.015625 
Q 29.984375 11.96875 32.28125 9.5625 
Q 34.578125 7.171875 40.28125 7.171875 
L 50.390625 7.171875 
L 50.390625 0 
L 39.40625 0 
Q 29.296875 0 25.140625 4.046875 
Q 21 8.109375 21 18.015625 
L 21 47.703125 
L 6.390625 47.703125 
L 6.390625 54.6875 
L 21 54.6875 
L 21 70.21875 
z
" id="DejaVuSansMono-74"/>
      <path d="M 12.5 54.6875 
L 35.5 54.6875 
L 35.5 6.984375 
L 53.328125 6.984375 
L 53.328125 0 
L 8.6875 0 
L 8.6875 6.984375 
L 26.515625 6.984375 
L 26.515625 47.703125 
L 12.5 47.703125 
z
M 26.515625 75.984375 
L 35.5 75.984375 
L 35.5 64.59375 
L 26.515625 64.59375 
z
" id="DejaVuSansMono-69"/>
      <path d="M 33.015625 49.125 
Q 34.671875 52.640625 37.234375 54.3125 
Q 39.796875 56 43.40625 56 
Q 50 56 52.703125 50.890625 
Q 55.421875 45.796875 55.421875 31.6875 
L 55.421875 0 
L 47.21875 0 
L 47.21875 31.296875 
Q 47.21875 42.875 45.921875 45.671875 
Q 44.625 48.484375 41.21875 48.484375 
Q 37.3125 48.484375 35.859375 45.484375 
Q 34.421875 42.484375 34.421875 31.296875 
L 34.421875 0 
L 26.21875 0 
L 26.21875 31.296875 
Q 26.21875 43.015625 24.828125 45.75 
Q 23.4375 48.484375 19.828125 48.484375 
Q 16.265625 48.484375 14.875 45.484375 
Q 13.484375 42.484375 13.484375 31.296875 
L 13.484375 0 
L 5.328125 0 
L 5.328125 54.6875 
L 13.484375 54.6875 
L 13.484375 50 
Q 15.09375 52.9375 17.5 54.46875 
Q 19.921875 56 23 56 
Q 26.703125 56 29.171875 54.296875 
Q 31.640625 52.59375 33.015625 49.125 
z
" id="DejaVuSansMono-6d"/>
      <path d="M 54.296875 29.59375 
L 54.296875 25.203125 
L 15.375 25.203125 
L 15.375 24.90625 
Q 15.375 15.96875 20.03125 11.078125 
Q 24.703125 6.203125 33.203125 6.203125 
Q 37.5 6.203125 42.1875 7.5625 
Q 46.875 8.9375 52.203125 11.71875 
L 52.203125 2.78125 
Q 47.078125 0.6875 42.3125 -0.359375 
Q 37.546875 -1.421875 33.109375 -1.421875 
Q 20.359375 -1.421875 13.171875 6.21875 
Q 6 13.875 6 27.296875 
Q 6 40.375 13.03125 48.1875 
Q 20.0625 56 31.78125 56 
Q 42.234375 56 48.265625 48.921875 
Q 54.296875 41.84375 54.296875 29.59375 
z
M 45.3125 32.234375 
Q 45.125 40.140625 41.578125 44.265625 
Q 38.03125 48.390625 31.390625 48.390625 
Q 24.90625 48.390625 20.703125 44.09375 
Q 16.5 39.796875 15.71875 32.171875 
z
" id="DejaVuSansMono-65"/>
      <path id="DejaVuSansMono-20"/>
      <path d="M 22.609375 75.984375 
L 43.3125 75.984375 
L 43.3125 69 
L 31.59375 69 
L 31.59375 -6.203125 
L 43.3125 -6.203125 
L 43.3125 -13.1875 
L 22.609375 -13.1875 
z
" id="DejaVuSansMono-5b"/>
      <path d="M 47.515625 52.78125 
L 47.515625 44 
Q 43.65625 46.234375 39.75 47.359375 
Q 35.84375 48.484375 31.78125 48.484375 
Q 25.6875 48.484375 22.671875 46.5 
Q 19.671875 44.53125 19.671875 40.484375 
Q 19.671875 36.8125 21.921875 35 
Q 24.171875 33.203125 33.109375 31.5 
L 36.71875 30.8125 
Q 43.40625 29.546875 46.84375 25.734375 
Q 50.296875 21.921875 50.296875 15.828125 
Q 50.296875 7.71875 44.53125 3.140625 
Q 38.765625 -1.421875 28.515625 -1.421875 
Q 24.46875 -1.421875 20.015625 -0.5625 
Q 15.578125 0.296875 10.40625 2 
L 10.40625 11.28125 
Q 15.4375 8.6875 20.015625 7.390625 
Q 24.609375 6.109375 28.71875 6.109375 
Q 34.671875 6.109375 37.9375 8.515625 
Q 41.21875 10.9375 41.21875 15.28125 
Q 41.21875 21.53125 29.25 23.921875 
L 28.859375 24.03125 
L 25.484375 24.703125 
Q 17.71875 26.21875 14.15625 29.8125 
Q 10.59375 33.40625 10.59375 39.59375 
Q 10.59375 47.46875 15.90625 51.734375 
Q 21.234375 56 31.109375 56 
Q 35.5 56 39.546875 55.1875 
Q 43.609375 54.390625 47.515625 52.78125 
z
" id="DejaVuSansMono-73"/>
      <path d="M 37.59375 75.984375 
L 37.59375 -13.1875 
L 16.890625 -13.1875 
L 16.890625 -6.203125 
L 28.609375 -6.203125 
L 28.609375 69 
L 16.890625 69 
L 16.890625 75.984375 
z
" id="DejaVuSansMono-5d"/>
     </defs>
     <g transform="translate(355.50375 202.422813)scale(0.1 -0.1)">
      <use xlink:href="#DejaVuSansMono-74"/>
      <use x="60.205078" xlink:href="#DejaVuSansMono-69"/>
      <use x="120.410156" xlink:href="#DejaVuSansMono-6d"/>
      <use x="180.615234" xlink:href="#DejaVuSansMono-65"/>
      <use x="240.820312" xlink:href="#DejaVuSansMono-20"/>
      <use x="301.025391" xlink:href="#DejaVuSansMono-5b"/>
      <use x="361.230469" xlink:href="#DejaVuSansMono-73"/>
      <use x="421.435547" xlink:href="#DejaVuSansMono-5d"/>
     </g>
    </g>
   </g>
   <g id="matplotlib.axis_2">
    <g id="ytick_1">
     <g id="line2d_15">
      <path clip-path="url(#p75b86648b1)" d="M 56 174.04 
L 703.17 174.04 
" style="fill:none;stroke:#b0b0b0;stroke-dasharray:0.8,1.32;stroke-dashoffset:0;stroke-width:0.8;"/>
     </g>
     <g id="line2d_16">
      <defs>
       <path d="M 0 0 
L -3.5 0 
" id="m27080aafdc" style="stroke:#000000;stroke-width:0.8;"/>
      </defs>
      <g>
       <use style="stroke:#000000;stroke-width:0.8;" x="56" xlink:href="#m27080aafdc" y="174.04"/>
      </g>
     </g>
     <g id="text_9">
      <!-- −1.0 -->
      <defs>
       <path d="M 4.296875 35.5 
L 55.90625 35.5 
L 55.90625 27.203125 
L 4.296875 27.203125 
z
" id="DejaVuSansMono-2212"/>
       <path d="M 23.875 14.890625 
L 36.1875 14.890625 
L 36.1875 0 
L 23.875 0 
z
" id="DejaVuSansMono-2e"/>
      </defs>
      <g transform="translate(24.91875 177.865781)scale(0.1 -0.1)">
       <use xlink:href="#DejaVuSansMono-2212"/>
       <use x="60.205078" xlink:href="#DejaVuSansMono-31"/>
       <use x="120.410156" xlink:href="#DejaVuSansMono-2e"/>
       <use x="180.615234" xlink:href="#DejaVuSansMono-30"/>
      </g>
     </g>
    </g>
    <g id="ytick_2">
     <g id="line2d_17">
      <path clip-path="url(#p75b86648b1)" d="M 56 137.25 
L 703.17 137.25 
" style="fill:none;stroke:#b0b0b0;stroke-dasharray:0.8,1.32;stroke-dashoffset:0;stroke-width:0.8;"/>
     </g>
     <g id="line2d_18">
      <g>
       <use style="stroke:#000000;stroke-width:0.8;" x="56" xlink:href="#m27080aafdc" y="137.25"/>
      </g>
     </g>
     <g id="text_10">
      <!-- −0.5 -->
      <defs>
       <path d="M 10.109375 72.90625 
L 47.015625 72.90625 
L 47.015625 64.59375 
L 19.09375 64.59375 
L 19.09375 46.6875 
Q 21.1875 47.46875 23.3125 47.828125 
Q 25.4375 48.1875 27.59375 48.1875 
Q 38.921875 48.1875 45.5625 41.5 
Q 52.203125 34.8125 52.203125 23.390625 
Q 52.203125 11.859375 45.234375 5.21875 
Q 38.28125 -1.421875 26.21875 -1.421875 
Q 20.40625 -1.421875 15.59375 -0.640625 
Q 10.796875 0.140625 6.984375 1.703125 
L 6.984375 11.71875 
Q 11.46875 9.28125 16.015625 8.078125 
Q 20.5625 6.890625 25.296875 6.890625 
Q 33.453125 6.890625 37.859375 11.1875 
Q 42.28125 15.484375 42.28125 23.390625 
Q 42.28125 31.203125 37.71875 35.546875 
Q 33.15625 39.890625 25 39.890625 
Q 21.046875 39.890625 17.28125 38.984375 
Q 13.53125 38.09375 10.109375 36.28125 
z
" id="DejaVuSansMono-35"/>
      </defs>
      <g transform="translate(24.91875 141.075781)scale(0.1 -0.1)">
       <use xlink:href="#DejaVuSansMono-2212"/>
       <use x="60.205078" xlink:href="#DejaVuSansMono-30"/>
       <use x="120.410156" xlink:href="#DejaVuSansMono-2e"/>
       <use x="180.615234" xlink:href="#DejaVuSansMono-35"/>
      </g>
     </g>
    </g>
    <g id="ytick_3">
     <g id="line2d_19">
      <path clip-path="url(#p75b86648b1)" d="M 56 100.46 
L 703.17 100.46 
" style="fill:none;stroke:#b0b0b0;stroke-dasharray:0.8,1.32;stroke-dashoffset:0;stroke-width:0.8;"/>
     </g>
     <g id="line2d_20">
      <g>
       <use style="stroke:#000000;stroke-width:0.8;" x="56" xlink:href="#m27080aafdc" y="100.46"/>
      </g>
     </g>
     <g id="text_11">
      <!-- 0.0 -->
      <g transform="translate(30.939063 104.285781)scale(0.1 -0.1)">
       <use xlink:href="#DejaVuSansMono-30"/>
       <use x="60.205078" xlink:href="#DejaVuSansMono-2e"/>
       <use x="120.410156" xlink:href="#DejaVuSansMono-30"/>
      </g>
     </g>
    </g>
    <g id="ytick_4">
     <g id="line2d_21">
      <path clip-path="url(#p75b86648b1)" d="M 56 63.67 
L 703.17 63.67 
" style="fill:none;stroke:#b0b0b0;stroke-dasharray:0.8,1.32;stroke-dashoffset:0;stroke-width:0.8;"/>
     </g>
     <g id="line2d_22">
      <g>
       <use style="stroke:#000000;stroke-width:0.8;" x="56" xlink:href="#m27080aafdc" y="63.67"/>
      </g>
     </g>
     <g id="text_12">
      <!-- 0.5 -->
      <g transform="translate(30.939063 67.495781)scale(0.1 -0.1)">
       <use xlink:href="#DejaVuSansMono-30"/>
       <use x="60.205078" xlink:href="#DejaVuSansMono-2e"/>
       <use x="120.410156" xlink:href="#DejaVuSansMono-35"/>
      </g>
     </g>
    </g>
    <g id="ytick_5">
     <g id="line2d_23">
      <path clip-path="url(#p75b86648b1)" d="M 56 26.88 
L 703.17 26.88 
" style="fill:none;stroke:#b0b0b0;stroke-dasharray:0.8,1.32;stroke-dashoffset:0;stroke-width:0.8;"/>
     </g>
     <g id="line2d_24">
      <g>
       <use style="stroke:#000000;stroke-width:0.8;" x="56" xlink:href="#m27080aafdc" y="26.88"/>
      </g>
     </g>
     <g id="text_13">
      <!-- 1.0 -->
      <g transform="translate(30.939063 30.705781)scale(0.1 -0.1)">
       <use xlink:href="#DejaVuSansMono-31"/>
       <use x="60.205078" xlink:href="#DejaVuSansMono-2e"/>
       <use x="120.410156" xlink:href="#DejaVuSansMono-30"/>
      </g>
     </g>
    </g>
    <g id="text_14">
     <!-- amplitude -->
     <defs>
      <path d="M 34.28125 27.484375 
L 31.296875 27.484375 
Q 23.4375 27.484375 19.453125 24.71875 
Q 15.484375 21.96875 15.484375 16.5 
Q 15.484375 11.578125 18.453125 8.84375 
Q 21.4375 6.109375 26.703125 6.109375 
Q 34.125 6.109375 38.375 11.25 
Q 42.625 16.40625 42.671875 25.484375 
L 42.671875 27.484375 
z
M 51.703125 31.203125 
L 51.703125 0 
L 42.671875 0 
L 42.671875 8.109375 
Q 39.796875 3.21875 35.421875 0.890625 
Q 31.0625 -1.421875 24.8125 -1.421875 
Q 16.453125 -1.421875 11.46875 3.296875 
Q 6.5 8.015625 6.5 15.921875 
Q 6.5 25.046875 12.625 29.78125 
Q 18.75 34.515625 30.609375 34.515625 
L 42.671875 34.515625 
L 42.671875 35.9375 
Q 42.625 42.484375 39.34375 45.4375 
Q 36.078125 48.390625 28.90625 48.390625 
Q 24.3125 48.390625 19.625 47.0625 
Q 14.9375 45.75 10.5 43.21875 
L 10.5 52.203125 
Q 15.484375 54.109375 20.046875 55.046875 
Q 24.609375 56 28.90625 56 
Q 35.6875 56 40.5 54 
Q 45.3125 52 48.296875 48 
Q 50.140625 45.5625 50.921875 41.96875 
Q 51.703125 38.375 51.703125 31.203125 
z
" id="DejaVuSansMono-61"/>
      <path d="M 18.3125 6.890625 
L 18.3125 -20.796875 
L 9.28125 -20.796875 
L 9.28125 54.6875 
L 18.3125 54.6875 
L 18.3125 47.703125 
Q 20.5625 51.765625 24.296875 53.875 
Q 28.03125 56 32.90625 56 
Q 42.828125 56 48.46875 48.328125 
Q 54.109375 40.671875 54.109375 27.09375 
Q 54.109375 13.765625 48.4375 6.171875 
Q 42.78125 -1.421875 32.90625 -1.421875 
Q 27.9375 -1.421875 24.1875 0.703125 
Q 20.453125 2.828125 18.3125 6.890625 
z
M 44.671875 27.296875 
Q 44.671875 37.75 41.375 43.0625 
Q 38.09375 48.390625 31.59375 48.390625 
Q 25.046875 48.390625 21.671875 43.046875 
Q 18.3125 37.703125 18.3125 27.296875 
Q 18.3125 16.9375 21.671875 11.5625 
Q 25.046875 6.203125 31.59375 6.203125 
Q 38.09375 6.203125 41.375 11.515625 
Q 44.671875 16.84375 44.671875 27.296875 
z
" id="DejaVuSansMono-70"/>
      <path d="M 31.203125 19.828125 
Q 31.203125 13.765625 33.421875 10.6875 
Q 35.640625 7.625 39.984375 7.625 
L 50.484375 7.625 
L 50.484375 0 
L 39.109375 0 
Q 31.0625 0 26.640625 5.171875 
Q 22.21875 10.359375 22.21875 19.828125 
L 22.21875 69.484375 
L 7.8125 69.484375 
L 7.8125 76.515625 
L 31.203125 76.515625 
z
" id="DejaVuSansMono-6c"/>
      <path d="M 9.515625 20.703125 
L 9.515625 54.59375 
L 18.5 54.59375 
L 18.5 20.703125 
Q 18.5 13.328125 21.109375 9.859375 
Q 23.734375 6.390625 29.203125 6.390625 
Q 35.546875 6.390625 38.90625 10.859375 
Q 42.28125 15.328125 42.28125 23.6875 
L 42.28125 54.59375 
L 51.3125 54.59375 
L 51.3125 0 
L 42.28125 0 
L 42.28125 8.203125 
Q 39.890625 3.46875 35.765625 1.015625 
Q 31.640625 -1.421875 26.125 -1.421875 
Q 17.71875 -1.421875 13.609375 4.078125 
Q 9.515625 9.578125 9.515625 20.703125 
z
" id="DejaVuSansMono-75"/>
      <path d="M 41.890625 47.703125 
L 41.890625 75.984375 
L 50.875 75.984375 
L 50.875 0 
L 41.890625 0 
L 41.890625 6.890625 
Q 39.65625 2.828125 35.90625 0.703125 
Q 32.171875 -1.421875 27.296875 -1.421875 
Q 17.390625 -1.421875 11.6875 6.265625 
Q 6 13.96875 6 27.484375 
Q 6 40.828125 11.71875 48.40625 
Q 17.4375 56 27.296875 56 
Q 32.234375 56 35.984375 53.875 
Q 39.75 51.765625 41.890625 47.703125 
z
M 15.484375 27.296875 
Q 15.484375 16.84375 18.796875 11.515625 
Q 22.125 6.203125 28.609375 6.203125 
Q 35.109375 6.203125 38.5 11.5625 
Q 41.890625 16.9375 41.890625 27.296875 
Q 41.890625 37.703125 38.5 43.046875 
Q 35.109375 48.390625 28.609375 48.390625 
Q 22.125 48.390625 18.796875 43.0625 
Q 15.484375 37.75 15.484375 27.296875 
z
" id="DejaVuSansMono-64"/>
     </defs>
     <g transform="translate(18.839063 127.551406)rotate(-90)scale(0.1 -0.1)">
      <use xlink:href="#DejaVuSansMono-61"/>
      <use x="60.205078" xlink:href="#DejaVuSansMono-6d"/>
      <use x="120.410156" xlink:href="#DejaVuSansMono-70"/>
      <use x="180.615234" xlink:href="#DejaVuSansMono-6c"/>
      <use x="240.820312" xlink:href="#DejaVuSansMono-69"/>
      <use x="301.025391" xlink:href="#DejaVuSansMono-74"/>
      <use x="361.230469" xlink:href="#DejaVuSansMono-75"/>
      <use x="421.435547" xlink:href="#DejaVuSansMono-64"/>
      <use x="481.640625" xlink:href="#DejaVuSansMono-65"/>
     </g>
    </g>
   </g>
   <g id="line2d_25">
    <path clip-path="url(#p75b86648b1)" d="M 56 15.060484 
L 56.539308 16.289709 
L 57.078617 55.611862 
L 57.617925 17.572781 
L 58.157233 38.830766 
L 58.696542 40.584534 
L 59.23585 26.858581 
L 59.775158 32.628523 
L 60.314467 10.270658 
L 60.853775 27.561625 
L 61.393083 29.752294 
L 61.932392 43.075845 
L 62.4717 6.43879 
L 63.011008 31.311844 
L 63.550317 8.344665 
L 64.089625 8.286169 
L 64.628933 12.721457 
L 65.168242 23.458732 
L 65.70755 23.172479 
L 66.246858 47.930518 
L 66.786167 6.672443 
L 67.325475 52.989147 
L 67.864783 54.76984 
L 68.404092 61.714732 
L 68.9434 48.803346 
L 69.482708 60.292768 
L 71.100633 35.590873 
L 71.639942 57.224106 
L 72.17925 48.165826 
L 72.718558 45.100444 
L 73.257867 34.92212 
L 73.797175 101.715323 
L 74.336483 69.064162 
L 74.875792 54.160766 
L 75.4151 94.428033 
L 75.954408 32.620354 
L 76.493717 56.717933 
L 77.033025 74.049684 
L 77.572333 9.547428 
L 78.111642 69.320177 
L 79.190258 34.467844 
L 79.729567 57.791284 
L 80.268875 64.631294 
L 80.808183 88.90778 
L 81.347492 57.108605 
L 81.8868 67.468923 
L 82.426108 68.533105 
L 82.965417 57.644102 
L 83.504725 73.551593 
L 84.044033 72.915254 
L 84.583342 67.904452 
L 85.12265 92.87401 
L 85.661958 67.65595 
L 86.201267 72.124586 
L 86.740575 146.285577 
L 87.279883 95.537117 
L 87.819192 87.842976 
L 88.3585 115.234516 
L 88.897808 89.33046 
L 89.437117 91.445787 
L 89.976425 77.464444 
L 91.055042 116.216925 
L 91.59435 78.260951 
L 92.133658 124.362919 
L 92.672967 112.974329 
L 93.212275 81.365989 
L 93.751583 108.158472 
L 94.290892 121.780569 
L 94.8302 112.182924 
L 95.369508 90.216305 
L 95.908817 112.968716 
L 96.448125 122.018318 
L 96.987433 116.701899 
L 97.526742 97.730819 
L 98.06605 126.27598 
L 98.605358 105.951668 
L 99.144667 116.970335 
L 99.683975 136.93034 
L 100.223283 102.59002 
L 100.762592 127.000944 
L 101.3019 90.274077 
L 102.380517 170.060838 
L 103.459133 88.976484 
L 103.998442 114.994495 
L 104.53775 127.923845 
L 105.077058 180.004531 
L 105.616367 133.536804 
L 106.155675 145.379481 
L 106.694983 108.030934 
L 107.234292 158.015555 
L 107.7736 143.552014 
L 108.312908 125.826277 
L 108.852217 145.08343 
L 109.391525 111.530592 
L 109.930833 115.07252 
L 110.470142 113.957787 
L 111.00945 130.053684 
L 111.548758 139.786233 
L 112.088067 165.398748 
L 112.627375 139.185593 
L 113.166683 106.917925 
L 113.705992 119.550465 
L 114.2453 123.689162 
L 114.784608 146.671705 
L 115.323917 113.248592 
L 115.863225 151.681832 
L 116.402533 113.440784 
L 116.941842 157.260851 
L 117.48115 123.063099 
L 118.020458 133.63898 
L 118.559767 141.979674 
L 119.638383 144.221073 
L 120.177692 137.938692 
L 120.717 144.128696 
L 121.256308 140.374663 
L 121.795617 138.346651 
L 122.334925 106.313068 
L 123.413542 115.690362 
L 123.95285 132.231514 
L 124.492158 161.474388 
L 125.031467 121.053351 
L 125.570775 145.337812 
L 126.110083 152.698539 
L 126.649392 145.029086 
L 127.1887 127.948986 
L 127.728008 163.86485 
L 128.806625 140.927427 
L 129.345933 135.82374 
L 129.885242 147.084483 
L 130.42455 119.979069 
L 130.963858 109.988741 
L 131.503167 111.573685 
L 132.042475 132.125897 
L 132.581783 97.420199 
L 133.121092 146.211853 
L 133.6604 111.517152 
L 134.199708 102.403561 
L 134.739017 119.336815 
L 135.278325 129.79981 
L 135.817633 122.563333 
L 136.356942 138.615609 
L 136.89625 105.153105 
L 137.435558 96.360006 
L 137.974867 102.497919 
L 138.514175 118.940236 
L 139.053483 118.154421 
L 139.592792 116.608642 
L 140.1321 143.121542 
L 140.671408 100.100632 
L 141.750025 138.25668 
L 142.289333 122.552574 
L 142.828642 76.940741 
L 143.36795 107.404729 
L 143.907258 114.011358 
L 144.446567 111.023441 
L 144.985875 132.039687 
L 145.525183 123.005615 
L 146.064492 90.556115 
L 146.6038 107.356011 
L 147.143108 114.970014 
L 147.682417 96.442821 
L 148.221725 136.758838 
L 148.761033 108.421022 
L 149.300342 106.256181 
L 149.83965 86.455894 
L 150.378958 98.5194 
L 151.457575 89.180791 
L 151.996883 88.801956 
L 152.536192 87.528263 
L 153.0755 95.483492 
L 153.614808 93.662538 
L 154.154117 92.598596 
L 154.693425 109.443839 
L 155.232733 81.074647 
L 155.772042 89.00968 
L 156.31135 86.188301 
L 156.850658 81.828999 
L 157.389967 94.716009 
L 158.468583 64.865155 
L 159.007892 80.603129 
L 160.086508 58.525745 
L 160.625817 87.884863 
L 161.165125 110.903273 
L 161.704433 73.268988 
L 162.243742 88.818049 
L 163.322358 77.109676 
L 163.861667 89.742549 
L 164.400975 106.539139 
L 164.940283 88.366629 
L 165.479592 103.676146 
L 166.0189 65.747091 
L 166.558208 77.036588 
L 167.097517 77.162172 
L 168.176133 87.116174 
L 168.715442 104.297721 
L 169.25475 86.382384 
L 169.794058 62.885326 
L 170.333367 64.764942 
L 170.872675 84.739786 
L 171.411983 91.253661 
L 171.951292 100.648618 
L 172.4906 100.615094 
L 173.029908 92.256327 
L 173.569217 104.264481 
L 174.108525 96.027912 
L 174.647833 93.82241 
L 175.187142 89.996619 
L 175.72645 65.523618 
L 176.265758 92.551669 
L 176.805067 83.513699 
L 177.344375 95.279547 
L 177.883683 97.91247 
L 178.422992 68.981942 
L 178.9623 108.742686 
L 179.501608 108.60107 
L 180.580225 74.945366 
L 181.119533 77.854736 
L 181.658842 92.651527 
L 182.19815 68.441148 
L 182.737458 138.687237 
L 183.276767 85.181015 
L 183.816075 103.313645 
L 184.355383 63.877062 
L 184.894692 113.513266 
L 185.434 68.818975 
L 185.973308 101.78572 
L 186.512617 99.547978 
L 187.051925 99.649822 
L 187.591233 87.72516 
L 189.209158 118.084866 
L 189.748467 83.597168 
L 190.287775 112.009111 
L 190.827083 116.7309 
L 191.366392 108.077416 
L 191.9057 122.809219 
L 192.445008 125.748624 
L 192.984317 88.927273 
L 193.523625 129.161441 
L 194.062933 95.200963 
L 194.602242 136.851655 
L 195.14155 134.60357 
L 195.680858 114.825738 
L 196.220167 147.03907 
L 196.759475 133.56254 
L 197.298783 111.957427 
L 197.838092 127.663765 
L 198.3774 153.574361 
L 199.456017 117.999148 
L 199.995325 117.223545 
L 200.534633 135.789919 
L 201.073942 146.796281 
L 201.61325 101.42624 
L 202.152558 114.867803 
L 202.691867 148.488859 
L 203.231175 149.789603 
L 203.770483 135.933103 
L 204.309792 107.130457 
L 204.8491 105.576006 
L 205.388408 110.297437 
L 205.927717 95.19257 
L 206.467025 161.232205 
L 207.006333 134.837975 
L 207.545642 148.366455 
L 208.08495 122.192709 
L 208.624258 143.894311 
L 209.163567 137.501983 
L 209.702875 140.598691 
L 210.242183 83.840535 
L 210.781492 132.280952 
L 211.3208 128.973977 
L 211.860108 109.601821 
L 212.399417 175.673598 
L 212.938725 108.473337 
L 213.478033 147.181171 
L 214.017342 144.310024 
L 214.55665 108.398829 
L 215.095958 117.250172 
L 215.635267 106.739921 
L 216.174575 118.126272 
L 216.713883 151.761547 
L 217.253192 150.636621 
L 217.7925 135.746404 
L 218.331808 103.524804 
L 218.871117 94.515113 
L 219.410425 118.182287 
L 219.949733 113.608154 
L 220.489042 175.520184 
L 221.02835 113.31907 
L 221.567658 106.271621 
L 222.106967 127.808433 
L 223.185583 159.945002 
L 223.724892 118.174427 
L 224.2642 122.599427 
L 224.803508 125.047649 
L 225.342817 153.008022 
L 225.882125 128.385622 
L 226.421433 130.800332 
L 226.960742 126.397187 
L 227.50005 70.218206 
L 228.039358 95.039905 
L 228.578667 101.352252 
L 229.117975 127.089139 
L 229.657283 124.857627 
L 230.196592 105.654233 
L 230.7359 123.738331 
L 231.275208 115.815477 
L 231.814517 158.139766 
L 232.353825 100.395063 
L 232.893133 152.614447 
L 233.432442 79.461695 
L 233.97175 117.958507 
L 234.511058 105.743834 
L 235.050367 86.013019 
L 235.589675 108.048568 
L 236.128983 107.055667 
L 236.668292 100.080977 
L 237.2076 76.5882 
L 237.746908 112.723542 
L 238.286217 93.698417 
L 238.825525 113.663234 
L 239.364833 91.168489 
L 239.904142 100.68712 
L 240.982758 86.229096 
L 241.522067 141.997869 
L 242.600683 76.733526 
L 243.139992 110.529084 
L 243.6793 86.192346 
L 244.218608 103.961018 
L 244.757917 78.589088 
L 245.297225 82.624388 
L 245.836533 84.443683 
L 246.375842 47.092867 
L 246.91515 79.286036 
L 247.454458 129.116359 
L 247.993767 77.45911 
L 248.533075 87.346555 
L 249.072383 67.627048 
L 249.611692 94.814624 
L 250.151 92.615747 
L 250.690308 97.094257 
L 251.229617 74.933555 
L 251.768925 95.937217 
L 252.847542 103.711656 
L 253.38685 78.347564 
L 253.926158 90.562475 
L 254.465467 82.879258 
L 255.004775 59.149913 
L 255.544083 52.078699 
L 256.083392 73.71277 
L 256.6227 87.795309 
L 257.162008 87.975225 
L 257.701317 111.688804 
L 258.240625 66.541839 
L 258.779933 89.817635 
L 259.319242 55.635691 
L 259.85855 82.040991 
L 260.397858 102.625115 
L 260.937167 77.731512 
L 261.476475 46.965237 
L 262.015783 91.602842 
L 262.555092 79.698827 
L 263.0944 47.100535 
L 263.633708 53.527352 
L 264.712325 77.210414 
L 265.251633 75.269854 
L 265.790942 66.652152 
L 266.33025 51.141947 
L 266.869558 56.780575 
L 267.408867 49.518223 
L 267.948175 66.375708 
L 268.487483 72.647518 
L 269.026792 25.065863 
L 269.5661 64.813741 
L 270.105408 44.302291 
L 270.644717 119.47771 
L 271.184025 78.155059 
L 271.723333 69.538593 
L 272.262642 84.362592 
L 272.80195 25.324825 
L 273.880567 85.164184 
L 274.419875 65.973342 
L 274.959183 69.450144 
L 275.498492 58.663014 
L 276.0378 56.164409 
L 276.577108 84.859813 
L 277.116417 33.343686 
L 277.655725 43.102094 
L 278.195033 72.816138 
L 278.734342 54.489009 
L 279.27365 73.534596 
L 279.812958 80.984774 
L 280.352267 62.745546 
L 280.891575 103.227152 
L 282.5095 37.734338 
L 283.048808 85.231417 
L 283.588117 81.424267 
L 284.127425 85.096613 
L 284.666733 82.123919 
L 285.206042 89.438393 
L 285.74535 77.63349 
L 286.284658 91.605293 
L 286.823967 99.990148 
L 287.363275 82.180903 
L 287.902583 84.727969 
L 288.441892 107.532706 
L 288.9812 74.227907 
L 289.520508 74.549448 
L 290.059817 96.720985 
L 290.599125 68.65983 
L 291.138433 52.743498 
L 291.677742 86.009658 
L 292.21705 72.427865 
L 292.756358 107.277915 
L 293.295667 115.624282 
L 293.834975 130.945873 
L 294.374283 74.054665 
L 294.913592 110.813724 
L 295.4529 47.227804 
L 295.992208 77.70461 
L 296.531517 101.655213 
L 297.070825 111.42906 
L 297.610133 93.203771 
L 298.149442 121.118863 
L 298.68875 45.299204 
L 299.228058 100.761464 
L 299.767367 105.531982 
L 300.306675 103.577627 
L 300.845983 102.400553 
L 301.385292 92.804913 
L 301.9246 122.685847 
L 302.463908 112.121798 
L 303.003217 114.471717 
L 304.081833 59.621351 
L 304.621142 107.860449 
L 305.16045 111.143987 
L 305.699758 132.635202 
L 306.239067 94.045978 
L 306.778375 85.846002 
L 307.317683 106.849792 
L 307.856992 117.261308 
L 308.3963 115.823662 
L 308.935608 100.885441 
L 309.474917 104.540641 
L 310.014225 126.71281 
L 310.553533 125.927654 
L 311.092842 110.797016 
L 311.63215 132.641212 
L 312.171458 106.433432 
L 312.710767 131.895816 
L 313.250075 112.303408 
L 313.789383 129.342039 
L 314.328692 114.842147 
L 314.868 90.09181 
L 315.407308 94.893364 
L 315.946617 90.786971 
L 316.485925 115.797095 
L 317.025233 128.009422 
L 317.564542 102.235666 
L 318.10385 102.043876 
L 318.643158 141.005059 
L 319.182467 104.279998 
L 319.721775 112.425053 
L 320.261083 157.149042 
L 320.800392 99.20285 
L 321.3397 120.651198 
L 321.879008 122.737665 
L 322.418317 128.861889 
L 322.957625 150.218072 
L 323.496933 97.483003 
L 324.036242 122.774128 
L 324.57555 87.085489 
L 325.114858 104.50609 
L 325.654167 147.484477 
L 326.193475 102.764139 
L 326.732783 133.607456 
L 327.272092 122.174765 
L 327.8114 116.033252 
L 328.350708 87.66189 
L 328.890017 134.990011 
L 329.429325 127.421719 
L 329.968633 146.820477 
L 330.507942 74.294814 
L 331.04725 137.08022 
L 331.586558 124.982255 
L 332.125867 146.968989 
L 332.665175 140.555732 
L 333.204483 105.766181 
L 333.743792 132.117312 
L 334.2831 132.899803 
L 334.822408 126.671306 
L 335.361717 121.776739 
L 335.901025 134.459449 
L 336.440333 106.911879 
L 336.979642 115.573785 
L 337.51895 117.83993 
L 338.058258 116.779016 
L 338.597567 104.522736 
L 339.136875 108.279192 
L 339.676183 107.649892 
L 340.215492 101.309101 
L 340.7548 93.582377 
L 341.294108 115.78805 
L 341.833417 131.716672 
L 342.372725 112.449264 
L 342.912033 140.333911 
L 343.451342 130.084437 
L 343.99065 125.169693 
L 344.529958 134.636539 
L 345.608575 89.818142 
L 346.147883 116.252638 
L 347.2265 119.574733 
L 347.765808 124.157506 
L 348.305117 102.905694 
L 348.844425 111.886538 
L 349.383733 94.217074 
L 349.923042 92.751717 
L 350.46235 101.255716 
L 351.001658 88.965679 
L 351.540967 79.786158 
L 352.080275 106.969483 
L 352.619583 78.961613 
L 353.158892 98.662012 
L 353.6982 111.29277 
L 354.237508 119.760278 
L 354.776817 93.699336 
L 355.316125 108.606591 
L 355.855433 107.250223 
L 356.394742 107.747844 
L 356.93405 108.500141 
L 357.473358 111.811622 
L 358.012667 106.096731 
L 358.551975 97.451137 
L 359.091283 86.691035 
L 359.630592 107.284345 
L 360.1699 76.921671 
L 360.709208 111.604484 
L 361.248517 94.35025 
L 361.787825 126.323344 
L 362.327133 77.814734 
L 362.866442 89.201787 
L 363.40575 93.740483 
L 363.945058 109.021758 
L 364.484367 119.293513 
L 365.023675 90.173209 
L 365.562983 100.633166 
L 366.102292 115.867396 
L 366.6416 73.924189 
L 367.180908 112.281977 
L 367.720217 42.986243 
L 368.259525 78.451207 
L 368.798833 93.923809 
L 369.338142 114.159331 
L 369.87745 84.56891 
L 370.416758 95.949256 
L 370.956067 111.003298 
L 371.495375 105.639485 
L 372.034683 71.175955 
L 372.573992 78.868904 
L 373.1133 88.99296 
L 373.652608 49.197811 
L 374.191917 92.376654 
L 374.731225 94.658748 
L 375.270533 81.936351 
L 375.809842 101.653186 
L 376.34915 94.813419 
L 377.427767 69.187103 
L 377.967075 97.288332 
L 378.506383 107.527289 
L 379.045692 77.349874 
L 379.585 82.310658 
L 380.124308 66.191556 
L 380.663617 117.415255 
L 381.202925 86.975533 
L 381.742233 125.213739 
L 382.281542 59.653254 
L 382.82085 73.90279 
L 383.360158 79.549022 
L 383.899467 123.429728 
L 384.438775 89.760898 
L 384.978083 88.903457 
L 385.517392 90.784258 
L 386.0567 93.533779 
L 386.596008 102.260553 
L 387.135317 90.095987 
L 388.213933 96.442705 
L 388.753242 59.401567 
L 389.29255 86.038411 
L 389.831858 120.084428 
L 390.371167 89.127156 
L 390.910475 92.95787 
L 391.449783 91.969587 
L 391.989092 87.724818 
L 392.5284 86.638558 
L 393.067708 98.330597 
L 393.607017 127.66995 
L 394.146325 113.606628 
L 394.685633 87.119132 
L 395.224942 79.431549 
L 395.76425 94.557288 
L 396.303558 93.4168 
L 396.842867 84.923233 
L 397.382175 59.296431 
L 397.921483 111.344479 
L 398.460792 120.074948 
L 399.0001 98.271655 
L 399.539408 84.558064 
L 400.078717 110.293274 
L 400.618025 94.126303 
L 401.157333 108.907496 
L 402.23595 101.79488 
L 402.775258 116.342407 
L 403.314567 113.39936 
L 403.853875 86.32051 
L 404.393183 75.117401 
L 404.932492 82.023905 
L 405.4718 79.893395 
L 407.089725 132.541615 
L 407.629033 94.856972 
L 408.168342 98.589188 
L 408.70765 107.056672 
L 409.246958 118.539848 
L 409.786267 103.952919 
L 410.325575 97.298645 
L 410.864883 120.70718 
L 411.404192 102.57922 
L 411.9435 113.426106 
L 412.482808 90.845191 
L 413.022117 90.054093 
L 413.561425 91.631475 
L 414.100733 67.608885 
L 414.640042 133.953682 
L 415.17935 99.765605 
L 415.718658 103.803519 
L 416.257967 152.290019 
L 416.797275 91.013951 
L 417.336583 126.928771 
L 417.875892 100.805358 
L 418.4152 125.094613 
L 418.954508 80.34403 
L 419.493817 145.899955 
L 420.033125 110.441176 
L 420.572433 89.38259 
L 421.111742 136.51688 
L 421.65105 143.009654 
L 422.190358 137.517251 
L 422.729667 111.872236 
L 423.268975 140.251685 
L 423.808283 110.541515 
L 424.347592 141.132201 
L 424.8869 120.533947 
L 425.426208 92.242862 
L 425.965517 143.817325 
L 426.504825 110.340286 
L 427.044133 156.883328 
L 427.583442 136.059421 
L 428.12275 105.687649 
L 428.662058 92.643454 
L 429.201367 132.140456 
L 429.740675 145.621352 
L 430.279983 119.414906 
L 430.819292 115.546996 
L 431.3586 136.890289 
L 431.897908 149.12377 
L 432.437217 100.340487 
L 432.976525 110.821861 
L 433.515833 123.512407 
L 434.055142 83.820666 
L 434.59445 111.099326 
L 435.133758 89.947945 
L 435.673067 122.380466 
L 436.212375 145.598732 
L 436.751683 98.475642 
L 437.290992 102.510272 
L 438.369608 119.678601 
L 438.908917 144.911656 
L 439.448225 116.816704 
L 439.987533 99.42063 
L 440.526842 111.090644 
L 441.06615 130.824465 
L 441.605458 108.435541 
L 442.144767 122.165493 
L 442.684075 105.1928 
L 443.223383 117.326243 
L 443.762692 166.205591 
L 444.302 74.456045 
L 444.841308 141.652494 
L 445.380617 101.018425 
L 445.919925 123.619212 
L 446.459233 103.74319 
L 446.998542 131.341461 
L 447.53785 102.542799 
L 448.077158 104.353507 
L 448.616467 101.244998 
L 449.155775 124.474999 
L 449.695083 62.204881 
L 450.234392 137.911958 
L 450.7737 96.39271 
L 451.313008 84.380718 
L 451.852317 141.329098 
L 452.391625 142.254139 
L 452.930933 95.538896 
L 453.470242 83.603365 
L 454.00955 85.790612 
L 454.548858 95.862275 
L 455.088167 121.318291 
L 455.627475 94.817176 
L 456.166783 74.709132 
L 456.706092 98.598789 
L 457.2454 81.884509 
L 457.784708 103.814736 
L 458.863325 93.770235 
L 459.402633 123.400047 
L 459.941942 88.374543 
L 460.48125 97.615758 
L 461.020558 87.490203 
L 461.559867 95.316514 
L 462.099175 75.933499 
L 462.638483 97.959316 
L 463.177792 78.78459 
L 463.7171 94.888093 
L 464.256408 106.884717 
L 464.795717 72.388153 
L 465.335025 113.816743 
L 465.874333 111.946735 
L 466.413642 119.664092 
L 466.95295 106.0506 
L 467.492258 79.222589 
L 468.031567 91.037483 
L 468.570875 80.653657 
L 469.110183 77.12726 
L 469.649492 101.611766 
L 470.1888 42.593229 
L 470.728108 96.675478 
L 471.267417 80.991619 
L 471.806725 100.353431 
L 472.346033 37.373992 
L 472.885342 82.443055 
L 473.42465 102.494135 
L 473.963958 80.392862 
L 474.503267 76.673073 
L 475.042575 69.387382 
L 475.581883 47.237422 
L 476.121192 108.665024 
L 477.199808 72.449228 
L 477.739117 105.31606 
L 478.278425 61.707989 
L 478.817733 67.538207 
L 479.357042 58.442967 
L 479.89635 88.895337 
L 480.435658 95.420739 
L 480.974967 72.284845 
L 481.514275 78.612363 
L 482.053583 104.918639 
L 482.592892 103.309051 
L 483.1322 51.044692 
L 483.671508 63.863281 
L 484.210817 71.016187 
L 484.750125 92.763471 
L 485.289433 69.085761 
L 485.828742 102.095776 
L 486.36805 95.242096 
L 486.907358 117.634908 
L 487.446667 87.652255 
L 487.985975 87.246963 
L 488.525283 65.037007 
L 489.064592 88.644916 
L 489.6039 96.575517 
L 490.143208 85.106226 
L 490.682517 90.599597 
L 491.221825 67.20968 
L 491.761133 55.532881 
L 492.300442 89.110514 
L 492.83975 90.484624 
L 493.379058 62.409411 
L 493.918367 100.652505 
L 494.457675 105.913784 
L 494.996983 99.234846 
L 495.536292 82.560778 
L 496.0756 74.443586 
L 496.614908 90.877677 
L 497.154217 90.371484 
L 497.693525 109.884263 
L 498.232833 79.875125 
L 498.772142 69.864259 
L 499.31145 105.838869 
L 499.850758 61.468535 
L 500.390067 109.960589 
L 500.929375 78.947699 
L 501.468683 77.197838 
L 502.007992 87.296635 
L 502.5473 119.053972 
L 503.086608 102.683877 
L 503.625917 99.039682 
L 504.165225 90.35102 
L 504.704533 65.969438 
L 505.243842 96.742106 
L 505.78315 87.084628 
L 506.322458 111.009804 
L 506.861767 91.909882 
L 507.401075 68.63336 
L 507.940383 122.545589 
L 508.479692 87.700572 
L 509.019 109.206863 
L 509.558308 76.629619 
L 510.097617 75.417664 
L 510.636925 110.870083 
L 511.176233 80.281458 
L 511.715542 92.781803 
L 512.25485 125.64903 
L 512.794158 93.060482 
L 513.333467 102.161178 
L 513.872775 117.284359 
L 514.412083 97.886511 
L 514.951392 118.027211 
L 515.4907 89.584491 
L 516.030008 85.406621 
L 517.108625 119.301043 
L 517.647933 87.233495 
L 518.187242 83.045253 
L 518.72655 112.828314 
L 519.265858 96.937041 
L 520.344475 107.767818 
L 520.883783 61.768687 
L 521.423092 112.105657 
L 521.9624 133.59339 
L 522.501708 148.857817 
L 523.041017 122.36776 
L 523.580325 133.082293 
L 524.119633 135.162002 
L 524.658942 113.047501 
L 525.19825 97.603261 
L 525.737558 112.265621 
L 526.276867 102.127247 
L 526.816175 102.905473 
L 527.355483 85.418435 
L 527.894792 119.243265 
L 528.4341 104.04407 
L 528.973408 127.49461 
L 529.512717 84.387201 
L 530.052025 102.156776 
L 530.591333 81.050858 
L 531.130642 98.574274 
L 531.66995 78.730827 
L 532.209258 122.949524 
L 532.748567 119.929538 
L 533.287875 100.92728 
L 533.827183 133.24573 
L 534.366492 113.943979 
L 534.9058 117.265251 
L 535.445108 105.894416 
L 535.984417 133.762095 
L 536.523725 113.143168 
L 537.063033 126.236352 
L 537.602342 130.900281 
L 538.14165 114.998322 
L 538.680958 95.194945 
L 539.220267 106.752773 
L 539.759575 95.33371 
L 540.298883 90.920604 
L 540.838192 100.421329 
L 541.3775 89.310786 
L 541.916808 126.854223 
L 542.456117 118.838166 
L 542.995425 136.701506 
L 543.534733 85.107984 
L 544.61335 119.712949 
L 545.152658 124.859724 
L 545.691967 128.182439 
L 546.231275 114.083992 
L 546.770583 117.194684 
L 547.309892 119.139906 
L 547.8492 93.80734 
L 548.388508 104.509439 
L 548.927817 141.998962 
L 549.467125 110.072189 
L 550.006433 111.340407 
L 550.545742 108.462591 
L 551.08505 104.104342 
L 551.624358 121.956186 
L 552.163667 114.23648 
L 552.702975 114.531845 
L 553.242283 95.084434 
L 553.781592 121.754782 
L 554.3209 96.542746 
L 554.860208 122.386537 
L 555.399517 106.64095 
L 555.938825 115.412523 
L 556.478133 106.414007 
L 557.017442 122.841371 
L 557.55675 128.834513 
L 558.096058 111.20139 
L 558.635367 101.654851 
L 559.174675 117.492098 
L 559.713983 124.509642 
L 560.253292 104.517109 
L 560.7926 93.693496 
L 561.331908 119.267894 
L 561.871217 96.45819 
L 562.410525 81.783577 
L 562.949833 114.41774 
L 563.489142 122.122687 
L 564.02845 70.539029 
L 564.567758 118.640025 
L 565.107067 56.536604 
L 565.646375 88.362206 
L 566.185683 89.431155 
L 566.724992 121.182502 
L 567.2643 124.269048 
L 567.803608 86.359736 
L 568.342917 109.825017 
L 568.882225 113.989145 
L 569.421533 125.465028 
L 569.960842 87.976172 
L 571.039458 108.255914 
L 571.578767 112.818545 
L 572.118075 79.680025 
L 572.657383 100.940688 
L 573.196692 98.403388 
L 573.736 115.674632 
L 574.275308 101.313744 
L 574.814617 91.917109 
L 575.353925 114.45021 
L 575.893233 93.097372 
L 576.432542 79.371776 
L 576.97185 73.23324 
L 577.511158 97.323745 
L 578.050467 106.396001 
L 578.589775 106.597545 
L 579.129083 120.486444 
L 579.668392 123.89573 
L 580.2077 92.331535 
L 580.747008 112.600421 
L 581.286317 111.546999 
L 581.825625 65.800787 
L 582.364933 76.752706 
L 582.904242 77.896915 
L 583.44355 84.810485 
L 583.982858 81.612735 
L 584.522167 51.050462 
L 585.061475 93.75688 
L 585.600783 59.379846 
L 586.140092 95.873835 
L 586.6794 105.658535 
L 587.218708 86.156513 
L 587.758017 79.531247 
L 588.297325 95.396639 
L 588.836633 86.057082 
L 589.375942 110.981272 
L 589.91525 96.222954 
L 590.454558 89.744534 
L 590.993867 91.369788 
L 591.533175 93.484389 
L 592.072483 101.907317 
L 592.611792 99.44915 
L 593.1511 100.577069 
L 593.690408 81.191857 
L 594.229717 81.682181 
L 594.769025 86.033412 
L 595.308333 89.313188 
L 595.847642 105.30466 
L 596.38695 61.269006 
L 596.926258 103.476311 
L 597.465567 59.781089 
L 598.004875 114.404133 
L 598.544183 61.391397 
L 599.083492 101.29207 
L 599.6228 118.28614 
L 600.162108 117.511186 
L 600.701417 93.05927 
L 601.240725 94.712826 
L 601.780033 59.404439 
L 602.319342 93.066142 
L 602.85865 112.685877 
L 603.397958 102.654007 
L 603.937267 67.343052 
L 604.476575 68.697724 
L 605.015883 92.327549 
L 605.555192 102.5445 
L 606.633808 90.163438 
L 607.173117 72.765147 
L 607.712425 73.772673 
L 608.791042 104.636074 
L 609.33035 82.483372 
L 609.869658 79.046888 
L 610.408967 110.947699 
L 610.948275 134.583572 
L 611.487583 98.35111 
L 612.026892 88.193891 
L 612.5662 85.294919 
L 613.105508 84.022157 
L 613.644817 65.742936 
L 614.184125 110.189394 
L 614.723433 114.699249 
L 615.262742 80.494559 
L 615.80205 89.610123 
L 616.341358 122.248928 
L 617.419975 90.905091 
L 617.959283 107.201164 
L 618.498592 106.024092 
L 619.0379 94.940823 
L 619.577208 89.783699 
L 620.116517 92.88151 
L 620.655825 77.689915 
L 621.195133 115.400035 
L 621.734442 85.96844 
L 622.27375 82.938817 
L 622.813058 107.201927 
L 623.891675 98.499732 
L 624.430983 123.769033 
L 624.970292 120.388463 
L 625.5096 109.020792 
L 626.048908 129.781338 
L 626.588217 102.176146 
L 627.127525 111.289166 
L 627.666833 99.224825 
L 628.206142 110.924309 
L 628.74545 105.830221 
L 629.284758 80.243357 
L 629.824067 89.811053 
L 630.363375 103.785816 
L 630.902683 109.188277 
L 631.441992 108.846046 
L 631.9813 102.408174 
L 632.520608 73.266156 
L 633.059917 115.169996 
L 633.599225 119.759491 
L 634.138533 169.596632 
L 634.677842 92.461538 
L 635.21715 99.12769 
L 636.295767 149.812128 
L 636.835075 94.99568 
L 637.374383 104.263035 
L 637.913692 116.928442 
L 638.453 117.740987 
L 638.992308 89.594767 
L 639.531617 99.893611 
L 640.070925 145.080204 
L 640.610233 163.395522 
L 641.149542 120.761894 
L 641.68885 105.793426 
L 642.228158 123.988184 
L 642.767467 75.961538 
L 643.306775 112.984837 
L 643.846083 127.677066 
L 644.385392 111.819347 
L 644.9247 105.443916 
L 645.464008 92.440433 
L 646.003317 98.974031 
L 646.542625 86.003295 
L 647.081933 130.129398 
L 647.621242 140.807236 
L 648.16055 110.223125 
L 648.699858 112.390145 
L 649.239167 111.580382 
L 650.317783 135.7636 
L 650.857092 131.959532 
L 651.3964 82.260427 
L 651.935708 145.563305 
L 652.475017 136.476665 
L 653.014325 116.178033 
L 653.553633 111.337108 
L 654.092942 93.859835 
L 654.63225 132.772722 
L 655.710867 105.196574 
L 656.250175 130.425588 
L 656.789483 132.710408 
L 657.328792 98.818644 
L 658.407408 135.674243 
L 658.946717 93.089257 
L 659.486025 98.024672 
L 660.025333 98.427051 
L 660.564642 132.922331 
L 661.10395 89.71015 
L 661.643258 103.089036 
L 662.182567 88.270534 
L 662.721875 85.442978 
L 663.261183 114.247506 
L 663.800492 111.640767 
L 664.3398 79.29052 
L 664.879108 131.417753 
L 665.418417 99.136976 
L 665.957725 122.810686 
L 666.497033 110.357476 
L 667.036342 141.968497 
L 667.57565 102.867324 
L 668.114958 103.107237 
L 668.654267 100.666129 
L 669.193575 92.791006 
L 669.732883 115.298341 
L 670.272192 93.464933 
L 670.8115 120.817614 
L 671.350808 77.210593 
L 671.890117 94.388001 
L 672.429425 126.877259 
L 672.968733 80.223799 
L 673.508042 87.027164 
L 674.04735 83.224422 
L 674.586658 116.222516 
L 675.125967 120.104838 
L 676.204583 88.946946 
L 676.743892 125.602446 
L 677.822508 70.836187 
L 678.361817 80.697782 
L 678.901125 65.978706 
L 679.440433 75.77867 
L 679.979742 114.838319 
L 680.51905 103.054547 
L 681.058358 105.154323 
L 681.597667 86.741832 
L 682.136975 95.301565 
L 682.676283 70.173661 
L 683.215592 83.685393 
L 683.7549 109.030705 
L 684.294208 102.294766 
L 684.833517 60.389206 
L 685.372825 74.259085 
L 685.912133 103.597017 
L 686.451442 91.348964 
L 686.99075 76.080405 
L 687.530058 85.656144 
L 688.069367 52.041895 
L 689.147983 105.424083 
L 689.687292 87.507557 
L 690.2266 82.774917 
L 690.765908 90.108207 
L 691.305217 85.27049 
L 691.844525 104.479032 
L 692.383833 75.780969 
L 692.923142 100.874862 
L 693.46245 101.745569 
L 694.001758 104.666428 
L 694.541067 95.40018 
L 695.080375 90.493914 
L 696.158992 58.864153 
L 696.6983 88.444701 
L 697.237608 76.641451 
L 697.776917 100.703405 
L 698.316225 97.413828 
L 698.855533 78.957783 
L 699.394842 114.548684 
L 699.93415 82.953419 
L 700.473458 101.965399 
L 701.012767 67.943429 
L 701.552075 64.061727 
L 702.091383 70.583468 
L 702.630692 113.267397 
L 702.630692 113.267397 
" style="fill:none;stroke:#000000;stroke-linecap:square;"/>
   </g>
   <g id="line2d_26">
    <path clip-path="url(#p75b86648b1)" d="M 56 27.527027 
L 56.539308 27.501619 
L 57.078617 27.524801 
L 58.157233 27.716482 
L 59.23585 28.100734 
L 60.314467 28.675554 
L 61.393083 29.438276 
L 63.011008 30.927263 
L 64.628933 32.817612 
L 66.246858 35.092432 
L 67.864783 37.731924 
L 70.022017 41.779214 
L 72.17925 46.374222 
L 74.336483 51.449701 
L 77.033025 58.357774 
L 80.268875 67.270935 
L 85.661958 82.910004 
L 91.055042 98.388909 
L 94.290892 107.075579 
L 96.987433 113.751196 
L 99.683975 119.782918 
L 101.841208 124.07352 
L 103.998442 127.839908 
L 105.616367 130.2988 
L 107.234292 132.430756 
L 108.852217 134.227019 
L 110.470142 135.681846 
L 112.088067 136.792523 
L 113.705992 137.559349 
L 115.323917 137.985597 
L 116.941842 138.077449 
L 118.559767 137.843903 
L 120.177692 137.296657 
L 121.795617 136.449973 
L 123.413542 135.320514 
L 125.031467 133.927169 
L 127.1887 131.695293 
L 129.345933 129.086148 
L 132.042475 125.384778 
L 135.278325 120.461947 
L 140.1321 112.561768 
L 145.525183 103.883853 
L 148.761033 99.122777 
L 151.457575 95.580098 
L 153.614808 93.091986 
L 155.772042 90.955748 
L 157.389967 89.604923 
L 159.007892 88.482449 
L 160.625817 87.597308 
L 162.243742 86.955991 
L 163.861667 86.562457 
L 165.479592 86.418124 
L 167.097517 86.521879 
L 168.715442 86.870113 
L 170.333367 87.456776 
L 171.951292 88.273459 
L 173.569217 89.309494 
L 175.72645 91.009656 
L 177.883683 93.040953 
L 180.040917 95.361922 
L 182.737458 98.59947 
L 185.973308 102.845772 
L 197.838092 118.832502 
L 200.534633 121.910342 
L 202.691867 124.075806 
L 204.8491 125.930939 
L 207.006333 127.438366 
L 208.624258 128.321555 
L 210.242183 128.980319 
L 211.860108 129.405787 
L 213.478033 129.591269 
L 215.095958 129.532313 
L 216.713883 129.226736 
L 218.331808 128.67464 
L 219.949733 127.878401 
L 221.567658 126.842647 
L 223.185583 125.574202 
L 225.342817 123.536756 
L 227.50005 121.128626 
L 229.657283 118.382636 
L 232.353825 114.533796 
L 235.050367 110.302296 
L 238.825525 103.916938 
L 250.690308 83.38329 
L 253.38685 79.264721 
L 256.083392 75.556879 
L 258.240625 72.94159 
L 260.397858 70.678033 
L 262.555092 68.797144 
L 264.173017 67.652903 
L 265.790942 66.746405 
L 267.408867 66.083884 
L 269.026792 65.669491 
L 270.644717 65.505267 
L 272.262642 65.591136 
L 273.880567 65.924921 
L 275.498492 66.502367 
L 277.116417 67.317201 
L 278.734342 68.361188 
L 280.352267 69.624222 
L 282.5095 71.628231 
L 284.666733 73.967656 
L 286.823967 76.605118 
L 289.520508 80.257593 
L 292.756358 85.044834 
L 297.610133 92.709322 
L 304.081833 102.937874 
L 307.317683 107.68391 
L 310.014225 111.303854 
L 312.710767 114.538142 
L 314.868 116.803912 
L 317.025233 118.753399 
L 319.182467 120.364206 
L 320.800392 121.339731 
L 322.418317 122.110229 
L 324.036242 122.672609 
L 325.654167 123.025652 
L 327.272092 123.170004 
L 328.890017 123.10815 
L 330.507942 122.844375 
L 332.125867 122.384711 
L 333.743792 121.73686 
L 335.901025 120.596603 
L 338.058258 119.164576 
L 340.215492 117.471097 
L 342.912033 115.038687 
L 346.147883 111.754231 
L 350.46235 106.980333 
L 358.551975 97.918721 
L 361.787825 94.645094 
L 364.484367 92.208471 
L 367.180908 90.101786 
L 369.338142 88.688554 
L 371.495375 87.540399 
L 373.652608 86.673735 
L 375.809842 86.10004 
L 377.967075 85.82573 
L 379.585 85.817442 
L 381.742233 86.067125 
L 383.899467 86.607613 
L 386.0567 87.426569 
L 388.213933 88.507082 
L 390.371167 89.827995 
L 393.067708 91.77876 
L 395.76425 94.009602 
L 399.0001 96.967252 
L 404.393183 102.266937 
L 410.325575 108.030719 
L 413.561425 110.886166 
L 416.257967 113.005731 
L 418.954508 114.828701 
L 421.111742 116.040857 
L 423.268975 117.01168 
L 425.426208 117.724717 
L 427.583442 118.167802 
L 429.740675 118.333225 
L 431.897908 118.217827 
L 434.055142 117.823016 
L 436.212375 117.154718 
L 438.369608 116.22325 
L 440.526842 115.04312 
L 442.684075 113.632771 
L 445.380617 111.579997 
L 448.077158 109.252254 
L 451.313008 106.176095 
L 456.166783 101.209268 
L 463.7171 93.470008 
L 466.95295 90.452952 
L 469.649492 88.186924 
L 472.346033 86.202344 
L 474.503267 84.847684 
L 476.6605 83.721118 
L 478.817733 82.838123 
L 480.974967 82.210289 
L 483.1322 81.845164 
L 485.289433 81.746171 
L 487.446667 81.912586 
L 489.6039 82.339586 
L 491.761133 83.01836 
L 493.918367 83.936278 
L 496.0756 85.07713 
L 498.772142 86.786689 
L 501.468683 88.769381 
L 504.704533 91.437632 
L 509.019 95.326496 
L 519.265858 104.728831 
L 522.501708 107.360202 
L 525.19825 109.313621 
L 527.894792 111.003425 
L 530.591333 112.393924 
L 532.748567 113.271855 
L 534.9058 113.92992 
L 537.063033 114.361365 
L 539.220267 114.563104 
L 541.3775 114.53573 
L 543.534733 114.283458 
L 545.691967 113.814024 
L 547.8492 113.138522 
L 550.545742 112.026323 
L 553.242283 110.648642 
L 556.478133 108.701846 
L 560.253292 106.126059 
L 566.185683 101.735428 
L 572.118075 97.414683 
L 575.893233 94.945912 
L 579.129083 93.114664 
L 581.825625 91.838609 
L 584.522167 90.821877 
L 587.218708 90.087183 
L 589.375942 89.712977 
L 591.533175 89.533365 
L 593.690408 89.549318 
L 595.847642 89.758595 
L 598.004875 90.15581 
L 600.701417 90.903519 
L 603.397958 91.908854 
L 606.0945 93.14283 
L 609.33035 94.8765 
L 613.105508 97.160869 
L 619.577208 101.397082 
L 624.970292 104.844633 
L 628.74545 107.00886 
L 631.9813 108.60598 
L 634.677842 109.710813 
L 637.374383 110.581019 
L 640.070925 111.195782 
L 642.767467 111.54091 
L 645.464008 111.609129 
L 648.16055 111.400185 
L 650.857092 110.920788 
L 653.553633 110.184366 
L 656.250175 109.210667 
L 659.486025 107.765296 
L 662.721875 106.068783 
L 667.036342 103.524146 
L 681.058358 94.941884 
L 684.294208 93.305953 
L 687.530058 91.927256 
L 690.2266 91.007753 
L 692.923142 90.318674 
L 695.619683 89.874372 
L 698.316225 89.683033 
L 701.012767 89.746543 
L 702.630692 89.905406 
L 702.630692 89.905406 
" style="fill:none;stroke:#ff0000;stroke-linecap:square;stroke-width:3;"/>
   </g>
   <g id="patch_3">
    <path d="M 56 174.04 
L 56 26.88 
" style="fill:none;stroke:#000000;stroke-linecap:square;stroke-linejoin:miter;stroke-width:0.8;"/>
   </g>
   <g id="patch_4">
    <path d="M 703.17 174.04 
L 703.17 26.88 
" style="fill:none;stroke:#000000;stroke-linecap:square;stroke-linejoin:miter;stroke-width:0.8;"/>
   </g>
   <g id="patch_5">
    <path d="M 56 174.04 
L 703.17 174.04 
" style="fill:none;stroke:#000000;stroke-linecap:square;stroke-linejoin:miter;stroke-width:0.8;"/>
   </g>
   <g id="patch_6">
    <path d="M 56 26.88 
L 703.17 26.88 
" style="fill:none;stroke:#000000;stroke-linecap:square;stroke-linejoin:miter;stroke-width:0.8;"/>
   </g>
   <g id="text_15">
    <!-- damped vibration extraction by matrix pencil method -->
    <defs>
     <path d="M 4.890625 54.6875 
L 14.203125 54.6875 
L 30.078125 8.796875 
L 46 54.6875 
L 55.328125 54.6875 
L 35.890625 0 
L 24.3125 0 
z
" id="DejaVuSansMono-76"/>
     <path d="M 44.828125 27.296875 
Q 44.828125 37.75 41.5 43.0625 
Q 38.1875 48.390625 31.6875 48.390625 
Q 25.140625 48.390625 21.765625 43.046875 
Q 18.40625 37.703125 18.40625 27.296875 
Q 18.40625 16.9375 21.765625 11.5625 
Q 25.140625 6.203125 31.6875 6.203125 
Q 38.1875 6.203125 41.5 11.515625 
Q 44.828125 16.84375 44.828125 27.296875 
z
M 18.40625 47.703125 
Q 20.5625 51.703125 24.34375 53.84375 
Q 28.125 56 33.109375 56 
Q 42.96875 56 48.625 48.40625 
Q 54.296875 40.828125 54.296875 27.484375 
Q 54.296875 13.96875 48.609375 6.265625 
Q 42.921875 -1.421875 33.015625 -1.421875 
Q 28.125 -1.421875 24.390625 0.703125 
Q 20.65625 2.828125 18.40625 6.890625 
L 18.40625 0 
L 9.421875 0 
L 9.421875 75.984375 
L 18.40625 75.984375 
z
" id="DejaVuSansMono-62"/>
     <path d="M 56.390625 43.40625 
Q 53.515625 45.65625 50.53125 46.671875 
Q 47.5625 47.703125 44 47.703125 
Q 35.59375 47.703125 31.140625 42.421875 
Q 26.703125 37.15625 26.703125 27.203125 
L 26.703125 0 
L 17.671875 0 
L 17.671875 54.6875 
L 26.703125 54.6875 
L 26.703125 44 
Q 28.953125 49.8125 33.609375 52.90625 
Q 38.28125 56 44.671875 56 
Q 48 56 50.875 55.171875 
Q 53.765625 54.34375 56.390625 52.59375 
z
" id="DejaVuSansMono-72"/>
     <path d="M 30.078125 48.390625 
Q 23.25 48.390625 19.734375 43.0625 
Q 16.21875 37.75 16.21875 27.296875 
Q 16.21875 16.890625 19.734375 11.546875 
Q 23.25 6.203125 30.078125 6.203125 
Q 36.96875 6.203125 40.484375 11.546875 
Q 44 16.890625 44 27.296875 
Q 44 37.75 40.484375 43.0625 
Q 36.96875 48.390625 30.078125 48.390625 
z
M 30.078125 56 
Q 41.453125 56 47.484375 48.625 
Q 53.515625 41.265625 53.515625 27.296875 
Q 53.515625 13.28125 47.5 5.921875 
Q 41.5 -1.421875 30.078125 -1.421875 
Q 18.703125 -1.421875 12.6875 5.921875 
Q 6.6875 13.28125 6.6875 27.296875 
Q 6.6875 41.265625 12.6875 48.625 
Q 18.703125 56 30.078125 56 
z
" id="DejaVuSansMono-6f"/>
     <path d="M 51.3125 33.890625 
L 51.3125 0 
L 42.28125 0 
L 42.28125 33.890625 
Q 42.28125 41.265625 39.6875 44.71875 
Q 37.109375 48.1875 31.59375 48.1875 
Q 25.296875 48.1875 21.890625 43.71875 
Q 18.5 39.265625 18.5 30.90625 
L 18.5 0 
L 9.515625 0 
L 9.515625 54.6875 
L 18.5 54.6875 
L 18.5 46.484375 
Q 20.90625 51.171875 25 53.578125 
Q 29.109375 56 34.71875 56 
Q 43.0625 56 47.1875 50.5 
Q 51.3125 45.015625 51.3125 33.890625 
z
" id="DejaVuSansMono-6e"/>
     <path d="M 54.59375 54.6875 
L 35.015625 28.515625 
L 56.5 0 
L 46.09375 0 
L 30.078125 21.921875 
L 14.109375 0 
L 3.71875 0 
L 25.203125 28.515625 
L 5.609375 54.6875 
L 15.578125 54.6875 
L 30.078125 34.90625 
L 44.484375 54.6875 
z
" id="DejaVuSansMono-78"/>
     <path d="M 51.8125 2.78125 
Q 48.1875 0.6875 44.359375 -0.359375 
Q 40.53125 -1.421875 36.53125 -1.421875 
Q 23.828125 -1.421875 16.671875 6.1875 
Q 9.515625 13.8125 9.515625 27.296875 
Q 9.515625 40.765625 16.671875 48.375 
Q 23.828125 56 36.53125 56 
Q 40.484375 56 44.234375 54.96875 
Q 48 53.953125 51.8125 51.8125 
L 51.8125 42.390625 
Q 48.25 45.5625 44.65625 46.96875 
Q 41.0625 48.390625 36.53125 48.390625 
Q 28.078125 48.390625 23.53125 42.921875 
Q 19 37.453125 19 27.296875 
Q 19 17.1875 23.5625 11.6875 
Q 28.125 6.203125 36.53125 6.203125 
Q 41.21875 6.203125 44.921875 7.640625 
Q 48.640625 9.078125 51.8125 12.109375 
z
" id="DejaVuSansMono-63"/>
     <path d="M 41.890625 17.578125 
Q 39.65625 11.859375 36.1875 2.546875 
Q 31.34375 -10.359375 29.6875 -13.1875 
Q 27.4375 -17 24.0625 -18.890625 
Q 20.703125 -20.796875 16.21875 -20.796875 
L 8.984375 -20.796875 
L 8.984375 -13.28125 
L 14.3125 -13.28125 
Q 18.265625 -13.28125 20.5 -10.984375 
Q 22.75 -8.6875 26.21875 0.875 
L 5.078125 54.6875 
L 14.59375 54.6875 
L 30.8125 11.921875 
L 46.78125 54.6875 
L 56.296875 54.6875 
z
" id="DejaVuSansMono-79"/>
     <path d="M 51.3125 33.890625 
L 51.3125 0 
L 42.28125 0 
L 42.28125 33.890625 
Q 42.28125 41.265625 39.6875 44.71875 
Q 37.109375 48.1875 31.59375 48.1875 
Q 25.296875 48.1875 21.890625 43.71875 
Q 18.5 39.265625 18.5 30.90625 
L 18.5 0 
L 9.515625 0 
L 9.515625 75.984375 
L 18.5 75.984375 
L 18.5 46.484375 
Q 20.90625 51.171875 25 53.578125 
Q 29.109375 56 34.71875 56 
Q 43.0625 56 47.1875 50.5 
Q 51.3125 45.015625 51.3125 33.890625 
z
" id="DejaVuSansMono-68"/>
    </defs>
    <g transform="translate(195.363437 20.88)scale(0.12 -0.12)">
     <use xlink:href="#DejaVuSansMono-64"/>
     <use x="60.205078" xlink:href="#DejaVuSansMono-61"/>
     <use x="120.410156" xlink:href="#DejaVuSansMono-6d"/>
     <use x="180.615234" xlink:href="#DejaVuSansMono-70"/>
     <use x="240.820312" xlink:href="#DejaVuSansMono-65"/>
     <use x="301.025391" xlink:href="#DejaVuSansMono-64"/>
     <use x="361.230469" xlink:href="#DejaVuSansMono-20"/>
     <use x="421.435547" xlink:href="#DejaVuSansMono-76"/>
     <use x="481.640625" xlink:href="#DejaVuSansMono-69"/>
     <use x="541.845703" xlink:href="#DejaVuSansMono-62"/>
     <use x="602.050781" xlink:href="#DejaVuSansMono-72"/>
     <use x="662.255859" xlink:href="#DejaVuSansMono-61"/>
     <use x="722.460938" xlink:href="#DejaVuSansMono-74"/>
     <use x="782.666016" xlink:href="#DejaVuSansMono-69"/>
     <use x="842.871094" xlink:href="#DejaVuSansMono-6f"/>
     <use x="903.076172" xlink:href="#DejaVuSansMono-6e"/>
     <use x="963.28125" xlink:href="#DejaVuSansMono-20"/>
     <use x="1023.486328" xlink:href="#DejaVuSansMono-65"/>
     <use x="1083.691406" xlink:href="#DejaVuSansMono-78"/>
     <use x="1143.896484" xlink:href="#DejaVuSansMono-74"/>
     <use x="1204.101562" xlink:href="#DejaVuSansMono-72"/>
     <use x="1264.306641" xlink:href="#DejaVuSansMono-61"/>
     <use x="1324.511719" xlink:href="#DejaVuSansMono-63"/>
     <use x="1384.716797" xlink:href="#DejaVuSansMono-74"/>
     <use x="1444.921875" xlink:href="#DejaVuSansMono-69"/>
     <use x="1505.126953" xlink:href="#DejaVuSansMono-6f"/>
     <use x="1565.332031" xlink:href="#DejaVuSansMono-6e"/>
     <use x="1625.537109" xlink:href="#DejaVuSansMono-20"/>
     <use x="1685.742188" xlink:href="#DejaVuSansMono-62"/>
     <use x="1745.947266" xlink:href="#DejaVuSansMono-79"/>
     <use x="1806.152344" xlink:href="#DejaVuSansMono-20"/>
     <use x="1866.357422" xlink:href="#DejaVuSansMono-6d"/>
     <use x="1926.5625" xlink:href="#DejaVuSansMono-61"/>
     <use x="1986.767578" xlink:href="#DejaVuSansMono-74"/>
     <use x="2046.972656" xlink:href="#DejaVuSansMono-72"/>
     <use x="2107.177734" xlink:href="#DejaVuSansMono-69"/>
     <use x="2167.382812" xlink:href="#DejaVuSansMono-78"/>
     <use x="2227.587891" xlink:href="#DejaVuSansMono-20"/>
     <use x="2287.792969" xlink:href="#DejaVuSansMono-70"/>
     <use x="2347.998047" xlink:href="#DejaVuSansMono-65"/>
     <use x="2408.203125" xlink:href="#DejaVuSansMono-6e"/>
     <use x="2468.408203" xlink:href="#DejaVuSansMono-63"/>
     <use x="2528.613281" xlink:href="#DejaVuSansMono-69"/>
     <use x="2588.818359" xlink:href="#DejaVuSansMono-6c"/>
     <use x="2649.023438" xlink:href="#DejaVuSansMono-20"/>
     <use x="2709.228516" xlink:href="#DejaVuSansMono-6d"/>
     <use x="2769.433594" xlink:href="#DejaVuSansMono-65"/>
     <use x="2829.638672" xlink:href="#DejaVuSansMono-74"/>
     <use x="2889.84375" xlink:href="#DejaVuSansMono-68"/>
     <use x="2950.048828" xlink:href="#DejaVuSansMono-6f"/>
     <use x="3010.253906" xlink:href="#DejaVuSansMono-64"/>
    </g>
   </g>
   <g id="legend_1">
    <g id="patch_7">
     <path d="M 549.784063 64.3425 
L 696.17 64.3425 
Q 698.17 64.3425 698.17 62.3425 
L 698.17 33.88 
Q 698.17 31.88 696.17 31.88 
L 549.784063 31.88 
Q 547.784063 31.88 547.784063 33.88 
L 547.784063 62.3425 
Q 547.784063 64.3425 549.784063 64.3425 
z
" style="fill:#ffffff;opacity:0.8;stroke:#cccccc;stroke-linejoin:miter;"/>
    </g>
    <g id="line2d_27">
     <path d="M 551.784063 40.031562 
L 571.784063 40.031562 
" style="fill:none;stroke:#000000;stroke-linecap:square;"/>
    </g>
    <g id="line2d_28"/>
    <g id="text_16">
     <!-- noise-injected data -->
     <defs>
      <path d="M 17.390625 31.390625 
L 42.828125 31.390625 
L 42.828125 23.390625 
L 17.390625 23.390625 
z
" id="DejaVuSansMono-2d"/>
      <path d="M 29.296875 -0.984375 
L 29.296875 47.703125 
L 13.8125 47.703125 
L 13.8125 54.6875 
L 38.28125 54.6875 
L 38.28125 -0.984375 
Q 38.28125 -10.5 33.90625 -15.640625 
Q 29.546875 -20.796875 21.484375 -20.796875 
L 9.078125 -20.796875 
L 9.078125 -13.1875 
L 20.515625 -13.1875 
Q 24.90625 -13.1875 27.09375 -10.125 
Q 29.296875 -7.078125 29.296875 -0.984375 
z
M 29.296875 75.984375 
L 38.28125 75.984375 
L 38.28125 64.59375 
L 29.296875 64.59375 
z
" id="DejaVuSansMono-6a"/>
     </defs>
     <g transform="translate(579.784063 43.531562)scale(0.1 -0.1)">
      <use xlink:href="#DejaVuSansMono-6e"/>
      <use x="60.205078" xlink:href="#DejaVuSansMono-6f"/>
      <use x="120.410156" xlink:href="#DejaVuSansMono-69"/>
      <use x="180.615234" xlink:href="#DejaVuSansMono-73"/>
      <use x="240.820312" xlink:href="#DejaVuSansMono-65"/>
      <use x="301.025391" xlink:href="#DejaVuSansMono-2d"/>
      <use x="361.230469" xlink:href="#DejaVuSansMono-69"/>
      <use x="421.435547" xlink:href="#DejaVuSansMono-6e"/>
      <use x="481.640625" xlink:href="#DejaVuSansMono-6a"/>
      <use x="541.845703" xlink:href="#DejaVuSansMono-65"/>
      <use x="602.050781" xlink:href="#DejaVuSansMono-63"/>
      <use x="662.255859" xlink:href="#DejaVuSansMono-74"/>
      <use x="722.460938" xlink:href="#DejaVuSansMono-65"/>
      <use x="782.666016" xlink:href="#DejaVuSansMono-64"/>
      <use x="842.871094" xlink:href="#DejaVuSansMono-20"/>
      <use x="903.076172" xlink:href="#DejaVuSansMono-64"/>
      <use x="963.28125" xlink:href="#DejaVuSansMono-61"/>
      <use x="1023.486328" xlink:href="#DejaVuSansMono-74"/>
      <use x="1083.691406" xlink:href="#DejaVuSansMono-61"/>
     </g>
    </g>
    <g id="line2d_29">
     <path d="M 551.784063 54.762812 
L 571.784063 54.762812 
" style="fill:none;stroke:#ff0000;stroke-linecap:square;stroke-width:3;"/>
    </g>
    <g id="line2d_30"/>
    <g id="text_17">
     <!-- extracted vibration -->
     <g transform="translate(579.784063 58.262812)scale(0.1 -0.1)">
      <use xlink:href="#DejaVuSansMono-65"/>
      <use x="60.205078" xlink:href="#DejaVuSansMono-78"/>
      <use x="120.410156" xlink:href="#DejaVuSansMono-74"/>
      <use x="180.615234" xlink:href="#DejaVuSansMono-72"/>
      <use x="240.820312" xlink:href="#DejaVuSansMono-61"/>
      <use x="301.025391" xlink:href="#DejaVuSansMono-63"/>
      <use x="361.230469" xlink:href="#DejaVuSansMono-74"/>
      <use x="421.435547" xlink:href="#DejaVuSansMono-65"/>
      <use x="481.640625" xlink:href="#DejaVuSansMono-64"/>
      <use x="541.845703" xlink:href="#DejaVuSansMono-20"/>
      <use x="602.050781" xlink:href="#DejaVuSansMono-76"/>
      <use x="662.255859" xlink:href="#DejaVuSansMono-69"/>
      <use x="722.460938" xlink:href="#DejaVuSansMono-62"/>
      <use x="782.666016" xlink:href="#DejaVuSansMono-72"/>
      <use x="842.871094" xlink:href="#DejaVuSansMono-61"/>
      <use x="903.076172" xlink:href="#DejaVuSansMono-74"/>
      <use x="963.28125" xlink:href="#DejaVuSansMono-69"/>
      <use x="1023.486328" xlink:href="#DejaVuSansMono-6f"/>
      <use x="1083.691406" xlink:href="#DejaVuSansMono-6e"/>
     </g>
    </g>
   </g>
  </g>
 </g>
 <defs>
  <clipPath id="p75b86648b1">
   <rect height="147.16" width="647.17" x="56" y="26.88"/>
  </clipPath>
 </defs>
</svg>
